<?xml version="1.0" standalone="no"?>
<!DOCTYPE svg PUBLIC "-//W3C//DTD SVG 1.1//EN" "http://www.w3.org/Graphics/SVG/1.1/DTD/svg11.dtd" >
<svg xmlns="http://www.w3.org/2000/svg">
<metadata>Generated by IcoMoon</metadata>
<defs>
<font id="icomoon" horiz-adv-x="1024">
<font-face units-per-em="1024" ascent="960" descent="-64" />
<missing-glyph horiz-adv-x="1024" />
<glyph unicode="&#x20;" horiz-adv-x="512" d="" />
<glyph unicode="&#xe900;" glyph-name="action-account-circle" d="M512 853.334c-235.52 0-426.667-191.147-426.667-426.667s191.147-426.667 426.667-426.667c235.52 0 426.667 191.147 426.667 426.667s-191.147 426.667-426.667 426.667zM301.653 158.72c18.347 38.4 130.133 75.947 210.347 75.947s192.427-37.547 210.347-75.947c-58.027-46.080-130.987-73.387-210.347-73.387s-152.32 27.307-210.347 73.387zM783.36 220.587c-61.013 74.24-209.067 99.413-271.36 99.413s-210.347-25.173-271.36-99.413c-43.52 57.173-69.973 128.427-69.973 206.080 0 188.16 153.173 341.333 341.333 341.333s341.333-153.173 341.333-341.333c0-77.653-26.453-148.907-69.973-206.080zM512 682.667c-82.773 0-149.333-66.56-149.333-149.333s66.56-149.333 149.333-149.333c82.773 0 149.333 66.56 149.333 149.333s-66.56 149.333-149.333 149.333zM512 469.334c-35.413 0-64 28.587-64 64s28.587 64 64 64c35.413 0 64-28.587 64-64s-28.587-64-64-64z" />
<glyph unicode="&#xe901;" glyph-name="action-bolt" d="M550.707 253.793l100.828 201.649h-170.298v148.416l-107.506-209.435h176.976v-140.63zM465.374 33.463v275.626h-177.093c-24.633 0-41.277 26.631-29.294 48.601l245.001 477.353c15.313 31.291 62.582 19.973 62.582-15.313v-278.955h169.104c24.633 0 40.612-25.965 29.959-47.935l-237.012-474.024c-15.978-31.957-63.248-20.639-63.248 14.647z" />
<glyph unicode="&#xe902;" glyph-name="action-cart" d="M705.975 384c32 0 60.16 17.493 74.667 43.947l152.747 276.907c15.787 28.16-4.693 63.147-37.12 63.147h-631.467l-40.107 85.333h-139.52v-85.333h85.333l153.6-323.84-57.6-104.107c-31.147-57.173 9.813-126.72 74.667-126.72h512v85.333h-512l46.933 85.333h317.867zM305.335 682.667h518.4l-117.76-213.333h-299.52l-101.12 213.333zM341.175 170.667c46.933 0 85.333-38.4 85.333-85.333s-38.4-85.333-85.333-85.333c-46.933 0-84.907 38.4-84.907 85.333s37.973 85.333 84.907 85.333zM767.842 170.667c46.933 0 85.333-38.4 85.333-85.333s-38.4-85.333-85.333-85.333c-46.933 0-84.907 38.4-84.907 85.333s37.973 85.333 84.907 85.333z" />
<glyph unicode="&#xe903;" glyph-name="action-dashboard-active" d="M170.667 384h256c23.467 0 42.667 19.2 42.667 42.667v341.333c0 23.467-19.2 42.667-42.667 42.667h-256c-23.467 0-42.667-19.2-42.667-42.667v-341.333c0-23.467 19.2-42.667 42.667-42.667zM170.667 42.667h256c23.467 0 42.667 19.2 42.667 42.667v170.667c0 23.467-19.2 42.667-42.667 42.667h-256c-23.467 0-42.667-19.2-42.667-42.667v-170.667c0-23.467 19.2-42.667 42.667-42.667zM597.333 42.667h256c23.467 0 42.667 19.2 42.667 42.667v341.333c0 23.467-19.2 42.667-42.667 42.667h-256c-23.467 0-42.667-19.2-42.667-42.667v-341.333c0-23.467 19.2-42.667 42.667-42.667zM554.667 768v-170.667c0-23.467 19.2-42.667 42.667-42.667h256c23.467 0 42.667 19.2 42.667 42.667v170.667c0 23.467-19.2 42.667-42.667 42.667h-256c-23.467 0-42.667-19.2-42.667-42.667z" />
<glyph unicode="&#xe904;" glyph-name="action-dashboard-Inactive" d="M170.667 384h256c23.467 0 42.667 19.2 42.667 42.667v341.333c0 23.467-19.2 42.667-42.667 42.667h-256c-23.467 0-42.667-19.2-42.667-42.667v-341.333c0-23.467 19.2-42.667 42.667-42.667zM810.667 384v-256h-170.667v256h170.667zM170.667 42.667h256c23.467 0 42.667 19.2 42.667 42.667v170.667c0 23.467-19.2 42.667-42.667 42.667h-256c-23.467 0-42.667-19.2-42.667-42.667v-170.667c0-23.467 19.2-42.667 42.667-42.667zM384 213.334v-85.333h-170.667v85.333h170.667zM597.333 42.667h256c23.467 0 42.667 19.2 42.667 42.667v341.333c0 23.467-19.2 42.667-42.667 42.667h-256c-23.467 0-42.667-19.2-42.667-42.667v-341.333c0-23.467 19.2-42.667 42.667-42.667zM384 725.334v-256h-170.667v256h170.667zM554.667 768v-170.667c0-23.467 19.2-42.667 42.667-42.667h256c23.467 0 42.667 19.2 42.667 42.667v170.667c0 23.467-19.2 42.667-42.667 42.667h-256c-23.467 0-42.667-19.2-42.667-42.667zM810.667 725.334v-85.333h-170.667v85.333h170.667z" />
<glyph unicode="&#xe905;" glyph-name="action-delete-outline" d="M256 128c0-46.933 38.4-85.333 85.333-85.333h341.333c46.933 0 85.333 38.4 85.333 85.333v426.667c0 46.933-38.4 85.333-85.333 85.333h-341.333c-46.933 0-85.333-38.4-85.333-85.333v-426.667zM384 554.667h256c23.467 0 42.667-19.2 42.667-42.667v-341.333c0-23.467-19.2-42.667-42.667-42.667h-256c-23.467 0-42.667 19.2-42.667 42.667v341.333c0 23.467 19.2 42.667 42.667 42.667zM661.333 768l-30.293 30.293c-7.68 7.68-18.773 12.373-29.867 12.373h-178.347c-11.093 0-22.187-4.693-29.867-12.373l-30.293-30.293h-106.667c-23.467 0-42.667-19.2-42.667-42.667s19.2-42.667 42.667-42.667h512c23.467 0 42.667 19.2 42.667 42.667s-19.2 42.667-42.667 42.667h-106.667z" />
<glyph unicode="&#xe906;" glyph-name="action-done-all" d="M736.64 682.48c-7.971 7.989-18.794 12.479-30.080 12.479s-22.109-4.49-30.080-12.479l-240.64-240.64 60.16-60.16 240.64 241.067c16.213 16.213 16.213 43.52 0 59.733zM917.547 682.907l-421.547-421.547-148.48 148.053c-7.971 7.989-18.794 12.479-30.080 12.479s-22.109-4.49-30.080-12.479c-16.64-16.64-16.64-43.52 0-60.16l178.347-178.347c16.64-16.64 43.52-16.64 60.16 0l451.84 451.413c16.64 16.64 16.64 43.52 0 60.16h-0.427c-16.213 17.067-43.093 17.067-59.733 0.427zM46.293 348.827l178.347-178.347c16.64-16.64 43.52-16.64 60.16 0l29.867 29.867-208.213 209.067c-7.971 7.989-18.794 12.479-30.080 12.479s-22.109-4.49-30.080-12.479c-16.64-16.64-16.64-43.947 0-60.587z" />
<glyph unicode="&#xe907;" glyph-name="action-event" d="M682.667 384h-128c-23.467 0-42.667-19.2-42.667-42.667v-128c0-23.467 19.2-42.667 42.667-42.667h128c23.467 0 42.667 19.2 42.667 42.667v128c0 23.467-19.2 42.667-42.667 42.667zM682.667 810.667v-42.667h-341.333v42.667c0 23.467-19.2 42.667-42.667 42.667s-42.667-19.2-42.667-42.667v-42.667h-42.667c-47.36 0-84.907-38.4-84.907-85.333l-0.427-597.333c0-46.933 37.973-85.333 85.333-85.333h597.333c46.933 0 85.333 38.4 85.333 85.333v597.333c0 46.933-38.4 85.333-85.333 85.333h-42.667v42.667c0 23.467-19.2 42.667-42.667 42.667s-42.667-19.2-42.667-42.667zM810.667 597.334h-597.333v85.333h597.333v-85.333zM768 85.334h-512c-23.467 0-42.667 17.455-42.667 38.788v387.879h597.333v-387.879c0-21.333-19.2-38.788-42.667-38.788z" />
<glyph unicode="&#xe908;" glyph-name="action-female" d="M512 810.667c141.385 0 256-114.615 256-256 0-126.72-92.16-232.107-213.333-252.587v-88.747h85.333v-85.333h-85.333v-85.333h-85.333v85.333h-85.333v85.333h85.333v88.747c-121.173 20.48-213.333 125.867-213.333 252.587 0 141.385 114.615 256 256 256zM512 725.334c-94.257 0-170.667-76.41-170.667-170.667s76.41-170.667 170.667-170.667c94.257 0 170.667 76.41 170.667 170.667s-76.41 170.667-170.667 170.667z" />
<glyph unicode="&#xe909;" glyph-name="action-help-outline" d="M512 853.334c-235.52 0-426.667-191.147-426.667-426.667s191.147-426.667 426.667-426.667c235.52 0 426.667 191.147 426.667 426.667s-191.147 426.667-426.667 426.667zM512 85.334c-188.16 0-341.333 153.173-341.333 341.333s153.173 341.333 341.333 341.333c188.16 0 341.333-153.173 341.333-341.333s-153.173-341.333-341.333-341.333zM469.333 256h85.333v-85.333h-85.333v85.333zM538.027 680.96c-87.893 12.8-165.547-41.387-189.013-119.040-7.68-24.747 11.093-49.92 37.12-49.92h8.533c17.493 0 31.573 12.373 37.547 28.587 13.653 37.973 54.187 64 98.133 54.613 40.533-8.533 70.4-48.213 66.987-89.6-4.267-57.173-69.12-69.547-104.533-122.88 0-0.427-0.427-0.427-0.427-0.853-0.427-0.853-0.853-1.28-1.28-2.133-3.84-6.4-7.68-13.653-10.667-21.333-0.427-1.28-1.28-2.133-1.707-3.413-0.427-0.853-0.427-1.707-0.853-2.987-5.12-14.507-8.533-32-8.533-53.333h85.333c0 17.92 4.693 32.853 11.947 45.653 0.853 1.28 1.28 2.56 2.133 3.84 3.413 5.973 7.68 11.52 11.947 16.64 0.427 0.427 0.853 1.28 1.28 1.707 4.267 5.12 8.96 9.813 14.080 14.507 40.96 38.827 96.427 70.4 84.907 151.893-10.24 74.24-68.693 136.96-142.933 148.053z" />
<glyph unicode="&#xe90a;" glyph-name="action-info" d="M512 469.334v0c23.564 0 42.667-19.103 42.667-42.667v-170.667c0-23.564-19.103-42.667-42.667-42.667v0c-23.564 0-42.667 19.103-42.667 42.667v170.667c0 23.564 19.103 42.667 42.667 42.667zM512 853.334c-235.52 0-426.667-191.147-426.667-426.667s191.147-426.667 426.667-426.667c235.52 0 426.667 191.147 426.667 426.667s-191.147 426.667-426.667 426.667zM512 85.334c-188.16 0-341.333 153.173-341.333 341.333s153.173 341.333 341.333 341.333c188.16 0 341.333-153.173 341.333-341.333s-153.173-341.333-341.333-341.333zM469.333 640h85.333v-85.333h-85.333v85.333z" />
<glyph unicode="&#xe90b;" glyph-name="action-install" d="M707.66 512c11.316 0 22.168-4.495 30.17-12.497 16.662-16.662 16.662-43.677 0-60.34l-195.66-195.66c-16.662-16.662-43.677-16.662-60.34 0l-195.66 195.66c-8.002 8.002-12.497 18.854-12.497 30.17 0 23.564 19.103 42.667 42.667 42.667h67.66v213.333c0 23.564 19.103 42.667 42.667 42.667h170.667c23.564 0 42.667-19.103 42.667-42.667v-213.333h67.66zM469.333 426.667h-39.619c-1.132 0-2.217-0.45-3.017-1.25-1.666-1.666-1.666-4.368 0-6.034l82.286-82.286c1.666-1.666 4.368-1.666 6.034 0l82.286 82.286c0.8 0.8 1.25 1.885 1.25 3.017 0 2.356-1.91 4.267-4.267 4.267h-39.619v251.733c0 2.356-1.91 4.267-4.267 4.267h-76.8c-2.356 0-4.267-1.91-4.267-4.267v-251.733zM768 85.334h-512c-23.564 0-42.667 19.103-42.667 42.667s19.103 42.667 42.667 42.667h512c23.564 0 42.667-19.103 42.667-42.667s-19.103-42.667-42.667-42.667z" />
<glyph unicode="&#xe90c;" glyph-name="action-label-add" d="M430.582 251.635c-0.021-23.564-19.141-42.649-42.705-42.628l-219.233 0.199c-47.759 0-86.835 38.642-86.835 86.401v434.175c0 47.759 39.076 86.401 86.835 86.401l477.593 0.434c29.090 0 55.14-14.328 70.771-36.471l147.24-207.475c13.638-19.217 9.115-45.85-10.102-59.488-19.22-13.64-45.858-9.127-59.513 10.083-98.575 138.679-148.015 208.018-148.319 208.018-319.448-0.724-479.172-1.224-479.172-1.502 0.437-290.162 0.964-435.243 1.579-435.243l219.233-0.199c23.564-0.021 42.649-19.141 42.628-42.705zM771.525 292.717h128c23.467 0 42.667-19.2 42.667-42.667s-19.2-42.667-42.667-42.667h-128v-128c0-23.467-19.2-42.667-42.667-42.667s-42.667 19.2-42.667 42.667v128h-128c-23.467 0-42.667 19.2-42.667 42.667s19.2 42.667 42.667 42.667h128v128c0 23.467 19.2 42.667 42.667 42.667s42.667-19.2 42.667-42.667v-128z" />
<glyph unicode="&#xe90d;" glyph-name="action-label" d="M752.213 689.494c-15.36 21.76-40.96 35.84-69.547 35.84l-469.333-0.427c-46.933 0-85.333-37.973-85.333-84.907v-426.667c0-46.933 38.4-84.907 85.333-84.907l469.333-0.427c28.587 0 54.187 14.080 69.547 35.84l168.96 238.080c10.667 14.933 10.667 34.56 0 49.493l-168.96 238.080zM682.667 213.334h-469.333v426.667h469.333l151.467-213.333-151.467-213.333z" />
<glyph unicode="&#xe90e;" glyph-name="action-language" d="M511.573 853.334c-235.52 0-426.24-191.147-426.24-426.667s190.72-426.667 426.24-426.667c235.947 0 427.093 191.147 427.093 426.667s-191.147 426.667-427.093 426.667zM807.253 597.334h-125.867c-13.653 53.333-33.28 104.533-58.88 151.893 78.507-26.88 143.787-81.493 184.747-151.893zM512 766.294c35.413-51.2 63.147-107.947 81.493-168.96h-162.987c18.347 61.013 46.080 117.76 81.493 168.96zM181.76 341.334c-6.827 27.307-11.093 55.893-11.093 85.333s4.267 58.027 11.093 85.333h144.213c-3.413-28.16-5.973-56.32-5.973-85.333s2.56-57.173 5.973-85.333h-144.213zM216.747 256h125.867c13.653-53.333 33.28-104.533 58.88-151.893-78.507 26.88-143.787 81.067-184.747 151.893zM342.613 597.334h-125.867c40.96 70.827 106.24 125.013 184.747 151.893-25.6-47.36-45.227-98.56-58.88-151.893zM512 87.040c-35.413 51.2-63.147 107.947-81.493 168.96h162.987c-18.347-61.013-46.080-117.76-81.493-168.96zM611.84 341.334h-199.68c-3.84 28.16-6.827 56.32-6.827 85.333s2.987 57.6 6.827 85.333h199.68c3.84-27.733 6.827-56.32 6.827-85.333s-2.987-57.173-6.827-85.333zM622.507 104.107c25.6 47.36 45.227 98.56 58.88 151.893h125.867c-40.96-70.4-106.24-125.013-184.747-151.893zM698.027 341.334c3.413 28.16 5.973 56.32 5.973 85.333s-2.56 57.173-5.973 85.333h144.213c6.827-27.307 11.093-55.893 11.093-85.333s-4.267-58.027-11.093-85.333h-144.213z" />
<glyph unicode="&#xe90f;" glyph-name="action-lock" d="M768 554.667h-42.667v85.333c0 117.76-95.573 213.333-213.333 213.333s-213.333-95.573-213.333-213.333v-85.333h-42.667c-46.933 0-85.333-38.4-85.333-85.333v-426.667c0-46.933 38.4-85.333 85.333-85.333h512c46.933 0 85.333 38.4 85.333 85.333v426.667c0 46.933-38.4 85.333-85.333 85.333zM384 640c0 70.827 57.173 128 128 128s128-57.173 128-128v-85.333h-256v85.333zM768 42.667h-512v426.667h512v-426.667zM512 170.667c46.933 0 85.333 38.4 85.333 85.333s-38.4 85.333-85.333 85.333c-46.933 0-85.333-38.4-85.333-85.333s38.4-85.333 85.333-85.333z" />
<glyph unicode="&#xe910;" glyph-name="action-male" d="M532.053 507.307l218.027 218.027h-152.747c-23.564 0-42.667 19.103-42.667 42.667v0c0 23.564 19.103 42.667 42.667 42.667h298.667v-298.667c0-23.564-19.103-42.667-42.667-42.667v0c-23.564 0-42.667 19.103-42.667 42.667v153.173l-218.027-217.173c29.867-42.667 47.36-93.867 47.36-149.333 0-141.385-114.615-256-256-256s-256 114.615-256 256c0 141.385 114.615 256 256 256 55.040 0 106.667-17.493 148.053-47.36zM384 469.334c-94.257 0-170.667-76.41-170.667-170.667s76.41-170.667 170.667-170.667c94.257 0 170.667 76.41 170.667 170.667s-76.41 170.667-170.667 170.667z" />
<glyph unicode="&#xe911;" glyph-name="action-minimize" d="M298.667 469.334h426.667c23.467 0 42.667-19.2 42.667-42.667s-19.2-42.667-42.667-42.667h-426.667c-23.467 0-42.667 19.2-42.667 42.667s19.2 42.667 42.667 42.667z" />
<glyph unicode="&#xe912;" glyph-name="action-power-settings-new" d="M512.077 810.551c-23.467 0-42.667-19.2-42.667-42.667v-341.333c0-23.467 19.2-42.667 42.667-42.667s42.667 19.2 42.667 42.667v341.333c0 23.467-19.2 42.667-42.667 42.667zM731.383 688.524c-16.64-16.64-16.213-42.667-0.427-59.307 48.213-51.2 78.080-119.467 79.787-194.987 3.84-163.413-131.413-304.213-294.827-305.92-166.827-2.56-302.507 131.84-302.507 298.24 0 78.507 30.293 149.76 79.787 203.093 15.787 16.64 15.787 42.667-0.427 58.88-17.067 17.067-44.8 16.64-61.013-0.853-61.867-65.707-100.693-153.173-103.68-250.027-5.973-208.213 163.413-388.267 371.627-394.667 217.6-6.827 396.373 167.68 396.373 384 0 101.12-39.253 192.427-103.253 260.693-16.213 17.493-44.373 17.92-61.44 0.853z" />
<glyph unicode="&#xe913;" glyph-name="action-pulse" d="M892.541 447.695c25.465 0 46.126-20.661 46.126-46.126s-20.661-46.126-46.126-46.126h-138.932c-19.697 0-37.225 12.503-43.612 31.111l-48.408 140.578-123.118-357.644c-6.411-18.61-23.934-31.11-43.612-31.11-19.683 0-37.205 12.505-43.613 31.13l-105.821 307.427-31.127-90.383c-6.413-18.615-23.922-31.11-43.612-31.11h-139.226c-25.465 0-46.126 20.661-46.126 46.126s20.661 46.126 46.126 46.126h106.335l64.038 185.971c6.413 18.615 23.922 31.11 43.612 31.11s37.199-12.495 43.613-31.114l105.787-307.45 123.131 357.633c6.413 18.615 23.922 31.11 43.612 31.11 19.692 0 37.217-12.497 43.63-31.112l81.301-236.149h106.023z" />
<glyph unicode="&#xe914;" glyph-name="action-query-builder" d="M511.573 853.334c-235.52 0-426.24-191.147-426.24-426.667s190.72-426.667 426.24-426.667c235.947 0 427.093 191.147 427.093 426.667s-191.147 426.667-427.093 426.667zM512 85.334c-188.587 0-341.333 152.747-341.333 341.333s152.747 341.333 341.333 341.333c188.587 0 341.333-152.747 341.333-341.333s-152.747-341.333-341.333-341.333zM502.613 640h-2.56c-17.067 0-30.72-13.653-30.72-30.72v-201.387c0-14.933 7.68-29.013 20.907-36.693l177.067-106.24c14.507-8.533 33.28-4.267 41.813 10.24 8.96 14.507 4.267 33.707-10.667 42.24l-165.12 98.133v193.707c0 17.067-13.653 30.72-30.72 30.72z" />
<glyph unicode="&#xe915;" glyph-name="action-range" d="M293.653 672.794c-18.347 14.933-45.227 12.8-60.16-5.547l-180.907-218.027c-13.227-15.787-13.227-38.827 0-54.613l180.907-218.027c14.933-18.347 41.813-20.48 60.16-5.547s20.48 41.813 5.547 60.16l-158.293 190.72 158.293 190.72c14.933 18.347 12.8 45.227-5.547 60.16zM293.653 379.248h85.333v85.333h-85.333v-85.333zM720.32 464.581h-85.333v-85.333h85.333v85.333zM464.32 379.248h85.333v85.333h-85.333v-85.333zM720.32 672.794c-18.347-14.933-20.48-41.813-5.547-60.16l158.293-190.72-158.293-190.72c-14.933-18.347-12.373-45.227 5.547-60.16 18.347-14.933 45.227-12.8 60.16 5.547l180.907 218.027c13.227 15.787 13.227 38.827 0 54.613l-180.907 218.027c-14.933 17.92-42.24 20.48-60.16 5.547z" />
<glyph unicode="&#xe916;" glyph-name="action-schedule-start" d="M449.009 5.576c-23.311 3.445-39.416 25.135-35.971 48.446s25.135 39.416 48.446 35.971c16.485-2.436 33.224-3.668 50.134-3.668 188.188 0 340.726 152.433 340.726 340.343s-152.538 340.343-340.726 340.343c-187.771 0-339.96-152.4-339.96-340.343 0-35.342 5.37-69.914 15.801-102.883 7.108-22.467-5.342-46.441-27.809-53.55s-46.441 5.342-53.55 27.809c-13.058 41.271-19.776 84.522-19.776 128.624 0 235.045 190.368 425.676 425.293 425.676 235.303 0 426.059-190.625 426.059-425.676s-190.757-425.676-426.059-425.676c-21.088 0-41.996 1.539-62.608 4.585zM502.613 640h-2.56c-17.067 0-30.72-13.653-30.72-30.72v-201.387c0-14.933 7.68-29.013 20.907-36.693l177.067-106.24c14.507-8.533 33.28-4.267 41.813 10.24 8.96 14.507 4.267 33.707-10.667 42.24l-165.12 98.133v193.707c0 17.067-13.653 30.72-30.72 30.72zM215.664 235.412v-180.48c0-16.64 17.92-26.88 32.427-18.347l150.613 90.453c13.653 8.107 13.653 28.16 0 36.693l-150.613 90.453c-14.507 8.107-32.427-2.133-32.427-18.773z" />
<glyph unicode="&#xe917;" glyph-name="action-schedule-stop" d="M449.009 5.576c-23.311 3.445-39.416 25.135-35.971 48.446s25.135 39.416 48.446 35.971c16.485-2.436 33.224-3.668 50.134-3.668 188.188 0 340.726 152.433 340.726 340.343s-152.538 340.343-340.726 340.343c-187.771 0-339.96-152.4-339.96-340.343 0-35.342 5.37-69.914 15.801-102.883 7.108-22.467-5.342-46.441-27.809-53.55s-46.441 5.342-53.55 27.809c-13.058 41.271-19.776 84.522-19.776 128.624 0 235.045 190.368 425.676 425.293 425.676 235.303 0 426.059-190.625 426.059-425.676s-190.757-425.676-426.059-425.676c-21.088 0-41.996 1.539-62.608 4.585zM502.613 640h-2.56c-17.067 0-30.72-13.653-30.72-30.72v-201.387c0-14.933 7.68-29.013 20.907-36.693l177.067-106.24c14.507-8.533 33.28-4.267 41.813 10.24 8.96 14.507 4.267 33.707-10.667 42.24l-165.12 98.133v193.707c0 17.067-13.653 30.72-30.72 30.72zM214.725 248.357h128.853c17.717 0 32.213-14.496 32.213-32.213v-128.853c0-17.717-14.496-32.213-32.213-32.213h-128.853c-17.717 0-32.213 14.496-32.213 32.213v128.853c0 17.717 14.496 32.213 32.213 32.213z" />
<glyph unicode="&#xe918;" glyph-name="action-search" d="M672.213 330.454h-33.707l-11.947 11.52c41.813 48.64 66.987 111.787 66.987 180.48 0 153.173-124.16 277.333-277.333 277.333s-277.333-124.16-277.333-277.333c0-153.173 124.16-277.333 277.333-277.333 68.693 0 131.84 25.173 180.48 66.987l11.52-11.947v-33.707l213.333-212.907 63.573 63.573-212.907 213.333zM416.213 330.454c-106.24 0-192 85.76-192 192s85.76 192 192 192c106.24 0 192-85.76 192-192s-85.76-192-192-192z" />
<glyph unicode="&#xe919;" glyph-name="action-send" d="M491.52 544l-320.853 42.667 0.427 94.72 320.427-137.387zM170.667 171.947v94.72l320.427 42.667-320.427-137.387zM122.414 507.056l602.919-80.389-602.919-80.389c-21.22-2.829-37.058-20.946-37.028-42.353l0.281-196.64c0.034-23.564 19.163-42.639 42.728-42.606 5.76 0.008 11.459 1.183 16.753 3.453l744.729 319.322c21.657 9.286 31.686 34.371 22.4 56.028-4.315 10.065-12.335 18.085-22.4 22.4l-744.729 319.322c-21.657 9.286-46.742-0.743-56.028-22.4-2.27-5.294-3.444-10.993-3.453-16.753l-0.281-196.64c-0.031-21.408 15.808-39.524 37.028-42.353z" />
<glyph unicode="&#xe91a;" glyph-name="action-settings" d="M817.465 384.854c1.707 13.653 2.987 27.307 2.987 41.813s-1.28 28.16-2.987 41.813l90.027 70.4c8.107 6.4 10.24 17.92 5.12 27.307l-85.333 147.627c-3.84 6.827-11.093 10.667-18.773 10.667-2.56 0-5.12-0.427-7.253-1.28l-106.24-42.667c-22.187 17.067-46.080 31.147-72.107 41.813l-16.213 113.067c-1.28 10.24-10.24 17.92-20.907 17.92h-170.667c-10.667 0-19.627-7.68-20.907-17.92l-16.213-113.067c-26.027-10.667-49.92-25.173-72.107-41.813l-106.24 42.667c-2.56 0.853-5.12 1.28-7.68 1.28-7.253 0-14.507-3.84-18.347-10.667l-85.333-147.627c-5.547-9.387-2.987-20.907 5.12-27.307l90.027-70.4c-1.707-13.653-2.987-27.733-2.987-41.813s1.28-28.16 2.987-41.813l-90.027-70.4c-8.107-6.4-10.24-17.92-5.12-27.307l85.333-147.627c3.84-6.827 11.093-10.667 18.773-10.667 2.56 0 5.12 0.427 7.253 1.28l106.24 42.667c22.187-17.067 46.080-31.147 72.107-41.813l16.213-113.067c1.28-10.24 10.24-17.92 20.907-17.92h170.667c10.667 0 19.627 7.68 20.907 17.92l16.213 113.067c26.027 10.667 49.92 25.173 72.107 41.813l106.24-42.667c2.56-0.853 5.12-1.28 7.68-1.28 7.253 0 14.507 3.84 18.347 10.667l85.333 147.627c5.12 9.387 2.987 20.907-5.12 27.307l-90.027 70.4zM732.985 457.814c1.707-13.227 2.133-22.187 2.133-31.147s-0.853-18.347-2.133-31.147l-5.973-48.213 37.973-29.867 46.080-35.84-29.867-51.627-54.187 21.76-44.373 17.92-38.4-29.013c-18.347-13.653-35.84-23.893-53.333-31.147l-45.227-18.347-6.827-48.213-8.533-57.6h-59.733l-8.107 57.6-6.827 48.213-45.227 18.347c-18.347 7.68-35.413 17.493-52.48 30.293l-38.827 29.867-45.227-18.347-54.187-21.76-29.867 51.627 46.080 35.84 37.973 29.867-5.973 48.213c-1.28 13.227-2.133 23.040-2.133 31.573s0.853 18.347 2.133 31.147l5.973 48.213-37.973 29.867-46.080 35.84 29.867 51.627 54.187-21.76 44.373-17.92 38.4 29.013c18.347 13.653 35.84 23.893 53.333 31.147l45.227 18.347 6.827 48.213 8.533 57.6h59.307l8.107-57.6 6.827-48.213 45.227-18.347c18.347-7.68 35.413-17.493 52.48-30.293l38.827-29.867 45.227 18.347 54.187 21.76 29.867-51.627-45.653-36.267-37.973-29.867 5.973-48.213zM500.451 597.334c-94.293 0-170.667-76.373-170.667-170.667s76.373-170.667 170.667-170.667c94.293 0 170.667 76.373 170.667 170.667s-76.373 170.667-170.667 170.667zM500.451 341.334c-46.933 0-85.333 38.4-85.333 85.333s38.4 85.333 85.333 85.333c46.933 0 85.333-38.4 85.333-85.333s-38.4-85.333-85.333-85.333z" />
<glyph unicode="&#xe91b;" glyph-name="action-shopping-basket" d="M938.667 512.854h-204.373l-186.88 279.893c-8.107 11.947-21.76 17.92-35.413 17.92s-27.307-5.973-35.413-18.347l-186.88-279.467h-204.373c-23.467 0-42.667-19.2-42.667-42.667 0-3.84 0.427-7.68 1.707-11.52l108.373-395.52c9.813-35.84 42.667-62.293 81.92-62.293h554.667c39.253 0 72.107 26.453 82.347 62.293l108.373 395.52 1.28 11.52c0 23.467-19.2 42.667-42.667 42.667zM512 692.054l119.467-179.2h-238.933l119.467 179.2zM789.333 86.187l-554.24-0.427-93.867 341.76h741.973l-93.867-341.333zM512 342.187c-46.933 0-85.333-38.4-85.333-85.333s38.4-85.333 85.333-85.333c46.933 0 85.333 38.4 85.333 85.333s-38.4 85.333-85.333 85.333z" />
<glyph unicode="&#xe91c;" glyph-name="action-subject" d="M554.667 213.334h-341.333c-23.467 0-42.667-19.2-42.667-42.667s19.2-42.667 42.667-42.667h341.333c23.467 0 42.667 19.2 42.667 42.667s-19.2 42.667-42.667 42.667zM810.667 554.667h-597.333c-23.467 0-42.667-19.2-42.667-42.667s19.2-42.667 42.667-42.667h597.333c23.467 0 42.667 19.2 42.667 42.667s-19.2 42.667-42.667 42.667zM213.333 298.667h597.333c23.467 0 42.667 19.2 42.667 42.667s-19.2 42.667-42.667 42.667h-597.333c-23.467 0-42.667-19.2-42.667-42.667s19.2-42.667 42.667-42.667zM170.667 682.667c0-23.467 19.2-42.667 42.667-42.667h597.333c23.467 0 42.667 19.2 42.667 42.667s-19.2 42.667-42.667 42.667h-597.333c-23.467 0-42.667-19.2-42.667-42.667z" />
<glyph unicode="&#xe91d;" glyph-name="action-timeline" d="M981.333 597.334c0-46.933-38.4-85.333-85.333-85.333-7.68 0-14.933 0.853-21.76 2.987l-151.893-151.467c2.133-6.827 2.987-14.507 2.987-22.187 0-46.933-38.4-85.333-85.333-85.333s-85.333 38.4-85.333 85.333c0 7.68 0.853 15.36 2.987 22.187l-108.8 108.8c-6.827-2.133-14.507-2.987-22.187-2.987s-15.36 0.853-22.187 2.987l-194.133-194.56c2.133-6.827 2.987-14.080 2.987-21.76 0-46.933-38.4-85.333-85.333-85.333s-85.333 38.4-85.333 85.333c0 46.933 38.4 85.333 85.333 85.333 7.68 0 14.933-0.853 21.76-2.987l194.56 194.133c-2.133 6.827-2.987 14.507-2.987 22.187 0 46.933 38.4 85.333 85.333 85.333s85.333-38.4 85.333-85.333c0-7.68-0.853-15.36-2.987-22.187l108.8-108.8c6.827 2.133 14.507 2.987 22.187 2.987s15.36-0.853 22.187-2.987l151.467 151.893c-2.133 6.827-2.987 14.080-2.987 21.76 0 46.933 38.4 85.333 85.333 85.333s85.333-38.4 85.333-85.333zM981.333 597.334c0-46.933-38.4-85.333-85.333-85.333-7.68 0-14.933 0.853-21.76 2.987l-151.893-151.467c2.133-6.827 2.987-14.507 2.987-22.187 0-46.933-38.4-85.333-85.333-85.333s-85.333 38.4-85.333 85.333c0 7.68 0.853 15.36 2.987 22.187l-108.8 108.8c-6.827-2.133-14.507-2.987-22.187-2.987s-15.36 0.853-22.187 2.987l-194.133-194.56c2.133-6.827 2.987-14.080 2.987-21.76 0-46.933-38.4-85.333-85.333-85.333s-85.333 38.4-85.333 85.333c0 46.933 38.4 85.333 85.333 85.333 7.68 0 14.933-0.853 21.76-2.987l194.56 194.133c-2.133 6.827-2.987 14.507-2.987 22.187 0 46.933 38.4 85.333 85.333 85.333s85.333-38.4 85.333-85.333c0-7.68-0.853-15.36-2.987-22.187l108.8-108.8c6.827 2.133 14.507 2.987 22.187 2.987s15.36-0.853 22.187-2.987l151.467 151.893c-2.133 6.827-2.987 14.080-2.987 21.76 0 46.933 38.4 85.333 85.333 85.333s85.333-38.4 85.333-85.333z" />
<glyph unicode="&#xe91e;" glyph-name="action-verified-user" d="M477.44 888.64l-298.667-132.693c-30.72-13.653-50.773-44.373-50.773-78.080v-200.533c0-236.8 163.84-458.24 384-512 220.16 53.76 384 275.2 384 512v200.533c0 33.707-20.053 64.427-50.773 78.080l-298.667 132.693c-21.76 9.813-47.36 9.813-69.12 0zM810.667 477.334c0-192.853-127.147-370.773-298.667-423.68-171.52 52.907-298.667 230.827-298.667 423.68v200.533l298.667 132.693 298.667-132.693v-200.533zM396.373 251.627l-110.507 110.507c-7.989 7.971-12.479 18.794-12.479 30.080s4.49 22.109 12.479 30.080c16.64 16.64 43.52 16.64 60.16 0l80.64-80.213 250.88 250.88c16.64 16.64 43.52 16.64 60.16 0s16.64-43.52 0-60.16l-281.173-281.173c-16.213-16.64-43.52-16.64-60.16 0z" />
<glyph unicode="&#xe91f;" glyph-name="action-work-outline" d="M597.333 661.334v85.333h-170.667v-85.333h170.667zM170.667 533.334v-384c0-23.467 19.2-42.667 42.667-42.667h597.333c23.467 0 42.667 19.2 42.667 42.667v384c0 23.467-19.2 42.667-42.667 42.667h-597.333c-23.467 0-42.667-19.2-42.667-42.667zM853.333 661.334c47.36 0 85.333-37.973 85.333-85.333v-469.333c0-47.36-37.973-85.333-85.333-85.333h-682.667c-47.36 0-85.333 37.973-85.333 85.333l0.427 469.333c0 47.36 37.547 85.333 84.907 85.333h170.667v85.333c0 47.36 37.973 85.333 85.333 85.333h170.667c47.36 0 85.333-37.973 85.333-85.333v-85.333h170.667z" />
<glyph unicode="&#xe920;" glyph-name="alert-error-outline" d="M512 640c23.467 0 42.667-19.2 42.667-42.667v-170.667c0-23.467-19.2-42.667-42.667-42.667s-42.667 19.2-42.667 42.667v170.667c0 23.467 19.2 42.667 42.667 42.667zM511.573 853.334c-235.52 0-426.24-191.147-426.24-426.667s190.72-426.667 426.24-426.667c235.947 0 427.093 191.147 427.093 426.667s-191.147 426.667-427.093 426.667zM512 85.334c-188.587 0-341.333 152.747-341.333 341.333s152.747 341.333 341.333 341.333c188.587 0 341.333-152.747 341.333-341.333s-152.747-341.333-341.333-341.333zM554.667 213.334h-85.333v85.333h85.333v-85.333z" />
<glyph unicode="&#xe921;" glyph-name="av-mic-none" d="M511.955 320c70.827 0 128 57.173 128 128v256c0 70.827-57.173 128-128 128s-128-57.173-128-128v-256c0-70.827 57.173-128 128-128zM469.288 704c0 23.467 19.2 42.667 42.667 42.667s42.667-19.2 42.667-42.667v-256c0-23.467-19.2-42.667-42.667-42.667s-42.667 19.2-42.667 42.667v256zM764.115 448c-20.907 0-38.4-15.36-41.813-36.267-17.493-100.267-104.96-177.067-210.347-177.067s-192.853 76.8-210.347 177.067c-3.413 20.907-20.907 36.267-41.813 36.267-26.027 0-46.507-23.040-42.667-48.64 20.907-128 123.307-228.267 252.16-246.613v-88.747c0-23.467 19.2-42.667 42.667-42.667s42.667 19.2 42.667 42.667v88.747c128.853 18.347 231.253 118.613 252.16 246.613 4.267 25.6-16.64 48.64-42.667 48.64z" />
<glyph unicode="&#xe922;" glyph-name="av-playlist-add" d="M554.667 554.667h-426.667c-23.467 0-42.667-19.2-42.667-42.667s19.2-42.667 42.667-42.667h426.667c23.467 0 42.667 19.2 42.667 42.667s-19.2 42.667-42.667 42.667zM554.667 725.334h-426.667c-23.467 0-42.667-19.2-42.667-42.667s19.2-42.667 42.667-42.667h426.667c23.467 0 42.667 19.2 42.667 42.667s-19.2 42.667-42.667 42.667zM768 384v128c0 23.467-19.2 42.667-42.667 42.667s-42.667-19.2-42.667-42.667v-128h-128c-23.467 0-42.667-19.2-42.667-42.667s19.2-42.667 42.667-42.667h128v-128c0-23.467 19.2-42.667 42.667-42.667s42.667 19.2 42.667 42.667v128h128c23.467 0 42.667 19.2 42.667 42.667s-19.2 42.667-42.667 42.667h-128zM128 298.667h256c23.467 0 42.667 19.2 42.667 42.667s-19.2 42.667-42.667 42.667h-256c-23.467 0-42.667-19.2-42.667-42.667s19.2-42.667 42.667-42.667z" />
<glyph unicode="&#xe923;" glyph-name="av-repeat" d="M289.707 627.43h426.667v-76.373c0-19.2 23.040-28.587 36.267-14.933l119.040 119.040c8.533 8.533 8.533 21.76 0 30.293l-119.040 119.040c-13.227 13.227-36.267 3.84-36.267-15.36v-76.373h-469.333c-23.467 0-42.667-19.2-42.667-42.667v-170.667c0-23.467 19.2-42.667 42.667-42.667s42.667 19.2 42.667 42.667v128zM716.373 200.763h-426.667v76.373c0 19.2-23.040 28.587-36.267 14.933l-119.040-119.040c-8.533-8.533-8.533-21.76 0-30.293l119.040-119.040c13.227-13.227 36.267-3.84 36.267 15.36v76.373h469.333c23.467 0 42.667 19.2 42.667 42.667v170.667c0 23.467-19.2 42.667-42.667 42.667s-42.667-19.2-42.667-42.667v-128z" />
<glyph unicode="&#xe924;" glyph-name="communication-call-split" d="M91.961 462.474l135.358 135.358c14.237 14.237 38.202 4.106 38.202-15.441v-90.908h181.772v-89.614h-181.772v-90.908c0-19.547-23.966-29.633-38.202-15.441l-135.358 135.358c-8.836 8.881-8.836 22.761 0 31.597zM535.269 683.505h223.098v89.034c0 19.637 24.099 29.455 38.381 15.62l135.224-135.671c8.926-8.97 8.926-22.805 0-31.285l-135.224-135.671c-14.281-14.237-38.381-3.972-38.381 15.665v93.051h-178.47v-490.914c0-24.546-20.083-44.629-44.629-44.629s-44.629 20.083-44.629 44.629v535.542c0 24.546 20.083 44.629 44.629 44.629z" />
<glyph unicode="&#xe925;" glyph-name="communication-call" d="M819.357 288l-108.373 12.373c-26.027 2.987-51.627-5.973-69.973-24.32l-78.507-78.507c-120.747 61.44-219.733 160-281.173 281.173l78.933 78.933c18.347 18.347 27.307 43.947 24.32 69.973l-12.373 107.52c-5.12 43.093-41.387 75.52-84.907 75.52h-73.813c-48.213 0-88.32-40.107-85.333-88.32 22.613-364.373 314.027-655.36 677.973-677.973 48.213-2.987 88.32 37.12 88.32 85.333v73.813c0.427 43.093-32 79.36-75.093 84.48zM279.040 725.334c2.56-37.973 8.96-75.093 19.2-110.507l-51.2-51.2c-17.493 51.2-28.587 105.387-32.427 161.707h64.427zM699.733 212.48c36.267-10.24 73.387-16.64 110.933-19.2v-63.573c-56.32 3.84-110.507 14.933-162.133 32l51.2 50.773z" />
<glyph unicode="&#xe926;" glyph-name="communication-chat-bubble-outline" d="M853.333 853.334h-682.667c-46.933 0-85.333-38.4-85.333-85.333v-768l170.667 170.667h597.333c46.933 0 85.333 38.4 85.333 85.333v512c0 46.933-38.4 85.333-85.333 85.333zM810.667 256h-554.667l-85.333-85.333v554.667c0 23.467 19.2 42.667 42.667 42.667h597.333c23.467 0 42.667-19.2 42.667-42.667v-426.667c0-23.467-19.2-42.667-42.667-42.667z" />
<glyph unicode="&#xe927;" glyph-name="communication-mail" d="M853.333 768c46.933 0 85.333-38.4 85.333-85.333v-512c0-46.933-38.4-85.333-85.333-85.333h-682.667c-46.933 0-85.333 38.4-85.333 85.333l0.427 512c0 46.933 37.973 85.333 84.907 85.333h682.667zM192 682.667c-11.782 0-21.333-9.551-21.333-21.333v-469.333c0-11.782 9.551-21.333 21.333-21.333h640c11.782 0 21.333 9.551 21.333 21.333v469.333c0 11.782-9.551 21.333-21.333 21.333h-640zM797.087 578.933l-265.206-165.801c-12.004-7.502-27.758-7.502-39.762 0l-265.206 165.801c-9.378 6.002-15.005 16.13-15.005 27.008 0 25.133 27.383 40.137 48.765 27.008l251.327-157.173 251.327 157.173c21.382 13.129 48.765-1.876 48.765-27.008 0-10.878-5.627-21.006-15.005-27.008z" />
<glyph unicode="&#xe928;" glyph-name="content-add" d="M768 384h-213.333v-213.333c0-23.467-19.2-42.667-42.667-42.667s-42.667 19.2-42.667 42.667v213.333h-213.333c-23.467 0-42.667 19.2-42.667 42.667s19.2 42.667 42.667 42.667h213.333v213.333c0 23.467 19.2 42.667 42.667 42.667s42.667-19.2 42.667-42.667v-213.333h213.333c23.467 0 42.667-19.2 42.667-42.667s-19.2-42.667-42.667-42.667z" />
<glyph unicode="&#xe929;" glyph-name="content-filter-list" d="M469.333 170.667h85.333c23.467 0 42.667 19.2 42.667 42.667s-19.2 42.667-42.667 42.667h-85.333c-23.467 0-42.667-19.2-42.667-42.667s19.2-42.667 42.667-42.667zM128 640c0-23.467 19.2-42.667 42.667-42.667h682.667c23.467 0 42.667 19.2 42.667 42.667s-19.2 42.667-42.667 42.667h-682.667c-23.467 0-42.667-19.2-42.667-42.667zM298.667 384h426.667c23.467 0 42.667 19.2 42.667 42.667s-19.2 42.667-42.667 42.667h-426.667c-23.467 0-42.667-19.2-42.667-42.667s19.2-42.667 42.667-42.667z" />
<glyph unicode="&#xe92a;" glyph-name="content-report-gmailerrorred" d="M883.827 598.187l-199.68 199.68c-8.107 8.107-19.2 12.8-30.293 12.8h-283.307c-11.093 0-22.187-4.693-29.867-12.373l-200.107-200.107c-7.68-7.68-12.373-18.773-12.373-29.867v-282.88c0-11.52 4.693-22.187 12.373-30.293l199.68-199.68c8.107-8.107 19.2-12.8 30.293-12.8h282.88c11.52 0 22.187 4.693 30.293 12.373l199.68 199.68c8.107 8.107 12.373 18.773 12.373 30.293v283.307c0.427 11.093-4.267 22.187-11.947 29.867zM810.867 302.934l-174.933-174.933h-247.467l-174.933 174.933v247.467l174.933 174.933h247.467l174.933-174.933v-247.467zM512.2 298.667c-23.564 0-42.667-19.103-42.667-42.667s19.103-42.667 42.667-42.667c23.564 0 42.667 19.103 42.667 42.667s-19.103 42.667-42.667 42.667zM512.2 640c-23.467 0-42.667-19.2-42.667-42.667v-213.333c0-23.467 19.2-42.667 42.667-42.667s42.667 19.2 42.667 42.667v213.333c0 23.467-19.2 42.667-42.667 42.667z" />
<glyph unicode="&#xe92b;" glyph-name="content-sort" d="M170.667 170.667h170.667c23.467 0 42.667 19.2 42.667 42.667s-19.2 42.667-42.667 42.667h-170.667c-23.467 0-42.667-19.2-42.667-42.667s19.2-42.667 42.667-42.667zM128 640c0-23.467 19.2-42.667 42.667-42.667h682.667c23.467 0 42.667 19.2 42.667 42.667s-19.2 42.667-42.667 42.667h-682.667c-23.467 0-42.667-19.2-42.667-42.667zM170.667 384h426.667c23.467 0 42.667 19.2 42.667 42.667s-19.2 42.667-42.667 42.667h-426.667c-23.467 0-42.667-19.2-42.667-42.667s19.2-42.667 42.667-42.667z" />
<glyph unicode="&#xe92c;" glyph-name="content-waves" d="M725.333 213.76c-57.6 0-93.867-17.92-125.867-34.133-27.733-14.080-50.347-25.6-87.467-25.6-38.4 0-59.733 10.667-87.467 25.6-32 16.213-66.987 34.133-125.867 34.133s-93.867-17.92-125.867-34.133c-18.347-9.387-34.56-17.493-54.187-22.187-19.2-4.267-33.28-19.627-33.28-38.827v-4.267c0-25.6 23.893-43.947 48.64-38.827 31.573 6.4 55.467 18.347 77.227 29.44 27.733 14.080 49.92 25.6 87.467 25.6s59.733-10.667 87.467-25.6c32-16.213 66.987-34.133 125.867-34.133s93.867 17.92 125.867 34.133c27.733 14.080 50.347 25.6 87.467 25.6 38.4 0 59.733-10.667 87.467-25.6 22.187-11.093 46.080-23.467 78.080-29.867 24.747-4.693 47.787 14.080 47.787 38.827v3.84c0 19.627-14.507 34.987-33.707 39.253-19.627 4.267-35.413 12.373-53.76 22.187-32 16.64-68.267 34.56-125.867 34.56zM725.333 403.627c-57.6 0-93.867-18.347-125.867-34.133-27.733-13.653-50.347-25.6-87.467-25.6-38.4 0-59.733 10.667-87.467 25.6-32 16.213-66.987 34.133-125.867 34.133s-93.867-18.347-125.867-34.133c-18.347-8.96-34.56-17.493-54.613-22.187-18.773-4.267-32.853-19.627-32.853-38.827v-4.267c0-25.173 23.040-43.947 47.787-38.827 32 6.4 55.893 18.773 78.080 29.44 27.733 14.933 49.067 25.6 87.467 25.6s59.733-10.667 87.467-25.6c32-16.213 66.987-34.133 125.867-34.133s93.867 18.347 125.867 34.133c27.733 14.933 49.067 25.6 87.467 25.6s59.733-10.667 87.467-25.6c22.187-11.093 46.080-23.467 78.080-29.867 24.747-4.693 47.787 14.080 47.787 39.253v3.84c0 19.627-14.507 34.987-33.707 39.253-19.627 4.267-35.413 12.373-53.76 22.187-32 16.213-68.267 34.133-125.867 34.133zM851.2 748.374c-32 16.213-67.413 34.133-125.867 34.133s-93.867-17.92-125.867-34.133c-27.733-13.653-50.347-25.6-87.467-25.6-38.4 0-59.733 10.667-87.467 25.6-32 15.787-66.987 34.133-125.867 34.133s-93.867-17.92-125.867-34.133c-18.347-9.387-34.56-17.493-54.187-22.187-19.2-4.267-33.28-19.627-33.28-38.827v-2.987c0-25.6 23.040-44.373 47.787-39.253 32 6.4 55.893 18.773 78.080 29.44 27.733 14.080 49.92 25.6 87.467 25.6s59.733-10.667 87.467-25.6c32-16.213 66.987-34.133 125.867-34.133s93.867 18.347 125.867 34.133c27.733 13.653 50.347 25.6 87.467 25.6 38.4 0 59.733-10.667 87.467-25.6 22.187-11.093 46.080-23.467 78.080-29.867 24.747-4.693 47.787 14.080 47.787 39.253v3.84c0 19.627-14.507 34.987-33.707 39.253-19.627 4.267-35.413 11.947-53.76 21.333zM725.333 593.494c-57.6 0-93.867-18.347-125.867-34.133-27.733-14.933-49.067-25.6-87.467-25.6s-59.733 10.667-87.467 25.6c-32 16.213-66.987 34.133-125.867 34.133s-93.867-18.347-125.867-34.133c-18.347-9.813-34.133-17.92-53.76-22.187-19.2-4.267-33.707-19.627-33.707-39.253v-3.84c0-25.173 23.040-43.947 47.787-38.827 32 6.4 55.893 18.773 78.080 29.44 27.733 13.653 50.347 25.6 87.467 25.6s59.733-10.667 87.467-25.6c32-16.213 66.987-34.133 125.867-34.133s93.867 18.347 125.867 34.133c27.733 13.653 50.347 25.6 87.467 25.6 38.4 0 59.733-10.667 87.467-25.6 22.187-11.093 46.080-23.467 78.080-29.867 24.747-4.693 47.787 14.080 47.787 38.827v3.84c0 19.627-14.507 34.987-33.707 39.253-19.627 4.267-35.413 12.373-53.76 22.187-32 16.64-68.267 34.56-125.867 34.56z" />
<glyph unicode="&#xe92d;" glyph-name="device-data-usage" d="M554.717 781.202v-0.853c0-28.587 19.2-52.48 46.080-61.013 121.6-37.973 209.92-151.040 209.92-285.013 0-22.187-2.56-43.093-7.253-63.573-5.973-27.307 5.12-55.467 29.44-69.973l0.427-0.427c36.693-21.333 84.48-2.133 94.293 38.827 7.253 30.72 11.093 62.72 11.093 95.147 0 192-127.147 354.987-302.080 408.32-40.533 12.373-81.92-18.773-81.92-61.44zM466.824 139.069c-127.573 18.347-231.253 122.027-250.027 249.173-23.040 153.6 70.827 288.853 206.080 331.093 27.307 8.107 46.507 32.427 46.507 61.013v0.853c0 42.667-41.387 73.813-82.347 61.44-192.427-58.88-326.827-250.027-297.813-467.627 25.173-186.88 176.213-337.92 363.093-363.093 133.973-17.92 257.707 26.027 346.88 107.947 31.573 29.013 26.027 80.64-11.093 101.973-24.747 14.507-55.467 9.813-76.8-9.387-62.72-57.173-149.76-87.467-244.48-73.387z" />
<glyph unicode="&#xe92e;" glyph-name="editor-attach-money" d="M524.8 473.6c-96.853 25.173-128 51.2-128 91.733 0 46.507 43.093 78.933 115.2 78.933 60.587 0 90.88-23.040 101.973-59.733 5.12-17.067 19.2-29.867 37.12-29.867h12.8c28.16 0 48.213 27.733 38.4 54.187-17.92 50.347-59.733 92.16-126.293 108.373v29.44c0 35.413-28.587 64-64 64s-64-28.587-64-64v-28.16c-82.773-17.92-149.333-71.68-149.333-154.027 0-98.56 81.493-147.627 200.533-176.213 106.667-25.6 128-63.147 128-102.827 0-29.44-20.907-76.373-115.2-76.373-70.4 0-106.667 25.173-120.747 61.013-6.4 16.64-20.907 28.587-38.4 28.587h-11.947c-28.587 0-48.64-29.013-37.973-55.467 24.32-59.307 81.067-94.293 145.067-107.947v-28.587c0-35.413 28.587-64 64-64s64 28.587 64 64v27.733c83.2 15.787 149.333 64 149.333 151.467 0 121.173-103.68 162.56-200.533 187.733z" />
<glyph unicode="&#xe92f;" glyph-name="editor-bar-chart" d="M273.067 546.134h8.533c32.853 0 59.733-26.88 59.733-59.733v-298.667c0-32.853-26.88-59.733-59.733-59.733h-8.533c-32.853 0-59.733 26.88-59.733 59.733v298.667c0 32.853 26.88 59.733 59.733 59.733zM512 725.334c32.853 0 59.733-26.88 59.733-59.733v-477.867c0-32.853-26.88-59.733-59.733-59.733s-59.733 26.88-59.733 59.733v477.867c0 32.853 26.88 59.733 59.733 59.733zM750.933 384c32.853 0 59.733-26.88 59.733-59.733v-136.533c0-32.853-26.88-59.733-59.733-59.733s-59.733 26.88-59.733 59.733v136.533c0 32.853 26.88 59.733 59.733 59.733z" />
<glyph unicode="&#xe930;" glyph-name="editor-show-chart-alt" d="M341.333 213.334c-23.467 0-42.667 19.2-42.667 42.667v213.333c0 23.467 19.2 42.667 42.667 42.667s42.667-19.2 42.667-42.667v-213.333c0-23.467-19.2-42.667-42.667-42.667zM512 213.334c-23.467 0-42.667 19.2-42.667 42.667v341.333c0 23.467 19.2 42.667 42.667 42.667s42.667-19.2 42.667-42.667v-341.333c0-23.467-19.2-42.667-42.667-42.667zM682.667 213.334c-23.467 0-42.667 19.2-42.667 42.667v85.333c0 23.467 19.2 42.667 42.667 42.667s42.667-19.2 42.667-42.667v-85.333c0-23.467-19.2-42.667-42.667-42.667zM768 128h-512c-23.467 0-42.667 19.2-42.667 42.667v512c0 23.467 19.2 42.667 42.667 42.667h512c23.467 0 42.667-19.2 42.667-42.667v-512c0-23.467-19.2-42.667-42.667-42.667zM810.667 810.667h-597.333c-46.933 0-85.333-38.4-85.333-85.333v-597.333c0-46.933 38.4-85.333 85.333-85.333h597.333c46.933 0 85.333 38.4 85.333 85.333v597.333c0 46.933-38.4 85.333-85.333 85.333z" />
<glyph unicode="&#xe931;" glyph-name="editor-show-chart" d="M178.603 180.714l226.133 226.133 138.667-138.667c17.493-17.493 45.653-16.64 61.867 1.707l305.92 344.32c14.933 16.64 14.080 42.24-1.707 58.453-17.067 17.067-45.653 16.64-61.867-1.707l-272.64-306.347-140.373 140.373c-16.64 16.64-43.52 16.64-60.16 0l-259.84-260.267c-16.64-16.64-16.64-43.52 0-60.16l3.84-3.84c16.64-16.64 43.947-16.64 60.16 0z" />
<glyph unicode="&#xe932;" glyph-name="file-attachment" d="M736.168 256h-451.413c-89.173 0-168.533 65.28-177.067 154.027-9.813 101.547 69.973 187.307 169.813 187.307h527.36c55.893 0 106.667-40.107 112.213-95.573 6.4-64-43.52-117.76-106.24-117.76h-448c-23.467 0-42.667 19.2-42.667 42.667s19.2 42.667 42.667 42.667h373.333c17.493 0 32 14.507 32 32s-14.507 32-32 32h-367.36c-55.893 0-106.667-40.107-112.213-95.573-6.4-64 43.52-117.76 106.24-117.76h440.747c89.173 0 168.533 65.28 177.067 154.027 9.813 101.973-69.973 187.307-169.813 187.307h-523.52c-122.453 0-232.107-89.6-243.627-211.627-12.8-140.373 96.427-257.707 233.813-257.707h458.667c17.493 0 32 14.507 32 32s-14.507 32-32 32z" />
<glyph unicode="&#xe933;" glyph-name="image-add-a-photo" d="M212.406 550.029v70.493h-70.493c-19.386 0-35.246 15.861-35.246 35.246s15.861 35.246 35.246 35.246h70.493v70.493c0 19.386 15.861 35.246 35.246 35.246s35.246-15.861 35.246-35.246v-70.493h70.493c19.386 0 35.246-15.861 35.246-35.246s-15.861-35.246-35.246-35.246h-70.493v-70.493c0-19.386-15.861-35.246-35.246-35.246s-35.246 15.861-35.246 35.246zM388.016 351.091c0 97.28 78.952 176.232 176.232 176.232s176.232-78.952 176.232-176.232c0-97.28-78.952-176.232-176.232-176.232s-176.232 78.952-176.232 176.232zM564.248 456.83c-37.777 0-72.684-20.154-91.573-52.87s-18.888-73.023 0-105.739c18.888-32.716 53.796-52.87 91.573-52.87s72.684 20.154 91.573 52.87c18.888 32.716 18.888 73.023 0 105.739s-53.796 52.87-91.573 52.87zM683.193 572.836l-43.797 47.686h-144.714c-19.466 0-35.246 15.78-35.246 35.246s15.78 35.246 35.246 35.246h144.909c19.738 0 38.771-8.459 51.812-22.91l43.706-47.583h111.731c38.771 0 70.493-31.722 70.493-70.493v-422.957c0-38.771-31.722-70.493-70.493-70.493h-563.942c-38.771 0-70.493 31.722-70.493 70.493v280.009c0 19.466 15.78 35.246 35.246 35.246s35.246-15.78 35.246-35.246v-280.009h563.942v422.957h-111.731c-19.735 0-38.566 8.273-51.916 22.807z" />
<glyph unicode="&#xe934;" glyph-name="image-camera" d="M853.333 725.334h-135.253l-78.080 85.333h-256l-78.080-85.333h-135.253c-46.933 0-85.333-38.4-85.333-85.333v-512c0-46.933 38.4-85.333 85.333-85.333h682.667c46.933 0 85.333 38.4 85.333 85.333v512c0 46.933-38.4 85.333-85.333 85.333zM853.333 128h-682.667v512h172.8l78.080 85.333h180.907l78.080-85.333h172.8v-512zM512 597.334c-117.76 0-213.333-95.573-213.333-213.333s95.573-213.333 213.333-213.333c117.76 0 213.333 95.573 213.333 213.333s-95.573 213.333-213.333 213.333zM512 256c-70.4 0-128 57.6-128 128s57.6 128 128 128c70.4 0 128-57.6 128-128s-57.6-128-128-128z" />
<glyph unicode="&#xe935;" glyph-name="image-edit" d="M128 193.601v-129.707c0-11.947 9.387-21.333 21.333-21.333h129.707c5.547 0 11.093 2.133 14.933 6.4l465.92 465.493-160 160-465.493-465.493c-4.267-4.267-6.4-9.387-6.4-15.36zM883.627 638.188c16.64 16.64 16.64 43.52 0 60.16l-99.84 99.84c-7.971 7.989-18.794 12.479-30.080 12.479s-22.109-4.49-30.080-12.479l-78.080-78.080 160-160 78.080 78.080zM599.893 553.814l39.253-39.253-386.56-386.56h-39.253v39.253l386.56 386.56z" />
<glyph unicode="&#xe936;" glyph-name="image-photo" d="M810.667 128h-597.333v597.333h597.333v-597.333zM810.667 810.667h-597.333c-46.933 0-85.333-38.4-85.333-85.333v-597.333c0-46.933 38.4-85.333 85.333-85.333h597.333c46.933 0 85.333 38.4 85.333 85.333v597.333c0 46.933-38.4 85.333-85.333 85.333zM475.307 267.52l-74.352 89.986c-7.505 9.083-20.951 10.362-30.034 2.857-1.205-0.996-2.297-2.12-3.256-3.354l-84.91-109.251c-7.23-9.303-5.55-22.705 3.753-29.936 3.744-2.91 8.35-4.489 13.091-4.489h425.701c11.782 0 21.333 9.551 21.333 21.333 0 4.62-1.5 9.116-4.275 12.811l-122.263 162.806c-7.075 9.421-20.448 11.323-29.869 4.248-1.522-1.143-2.884-2.484-4.050-3.988l-110.87-143.023z" />
<glyph unicode="&#xe937;" glyph-name="maps-car" d="M807.253 724.907c-8.533 25.173-32.427 43.093-60.587 43.093h-469.333c-28.16 0-51.627-17.92-60.587-43.093l-88.747-255.573v-320c0-35.346 28.654-64 64-64v0c35.346 0 64 28.654 64 64v21.333h512v-21.333c0-35.346 28.654-64 64-64v0c35.346 0 64 28.654 64 64v320l-88.747 255.573zM322.616 682.667h378.341c18.169 0 34.345-11.506 40.306-28.67l36.124-104.023h-531.2l36.124 104.023c5.96 17.164 22.136 28.67 40.306 28.67zM789.333 256h-554.667c-11.782 0-21.333 9.551-21.333 21.333v170.667c0 11.782 9.551 21.333 21.333 21.333h554.667c11.782 0 21.333-9.551 21.333-21.333v-170.667c0-11.782-9.551-21.333-21.333-21.333zM704 298.667c35.346 0 64 28.654 64 64s-28.654 64-64 64c-35.346 0-64-28.654-64-64s28.654-64 64-64zM320 298.667c35.346 0 64 28.654 64 64s-28.654 64-64 64c-35.346 0-64-28.654-64-64s28.654-64 64-64z" />
<glyph unicode="&#xe938;" glyph-name="maps-compass" d="M782.243 696.91l-263.104-112.763 150.341-150.341 112.763 263.104zM846.673 817.364c10.733 4.6 22.882 4.6 33.615 0 21.659-9.283 31.692-34.366 22.409-56.024l-179.609-419.072c-2.138-4.989-5.209-9.524-9.047-13.362-16.662-16.662-43.677-16.662-60.34 0l-239.464 239.464c-3.838 3.838-6.909 8.373-9.047 13.362-9.283 21.659 0.75 46.742 22.409 56.024l419.072 179.609zM300.912 511.067c2.138 4.989 5.209 9.524 9.047 13.362 16.662 16.662 43.677 16.662 60.34 0l239.464-239.464c3.838-3.838 6.909-8.373 9.047-13.362 9.283-21.659-0.75-46.742-22.409-56.024l-419.072-179.609c-10.733-4.6-22.882-4.6-33.615 0-21.659 9.283-31.692 34.366-22.409 56.024l179.609 419.072z" />
<glyph unicode="&#xe939;" glyph-name="maps-delivery-shipping" d="M832 597.334c13.43 0 26.076-6.323 34.133-17.067l98.133-130.844c11.078-14.771 17.067-32.736 17.067-51.2v-142.222c0-23.564-19.103-42.667-42.667-42.667h-42.667c0-70.827-57.173-128-128-128s-128 57.173-128 128h-256c0-70.827-57.173-128-128-128s-128 57.173-128 128c-47.128 0-85.333 38.205-85.333 85.333v384c0 46.933 38.4 85.333 85.333 85.333h512c47.128 0 85.333-38.205 85.333-85.333v-85.333h106.667zM832 533.334h-106.667v-106.667h190.293l-83.627 106.667zM256 170.667c23.467 0 42.667 19.2 42.667 42.667s-19.2 42.667-42.667 42.667c-23.467 0-42.667-19.2-42.667-42.667s19.2-42.667 42.667-42.667zM350.72 298.667h285.013c2.356 0 4.267 1.91 4.267 4.267v375.467c0 2.356-1.91 4.267-4.267 4.267h-503.467c-2.356 0-4.267-1.91-4.267-4.267v-375.467c0-2.356 1.91-4.267 4.267-4.267h29.013c23.467 26.027 56.747 42.667 94.72 42.667s71.253-16.64 94.72-42.667zM768 170.667c23.467 0 42.667 19.2 42.667 42.667s-19.2 42.667-42.667 42.667c-23.467 0-42.667-19.2-42.667-42.667s19.2-42.667 42.667-42.667z" />
<glyph unicode="&#xe93a;" glyph-name="maps-directions-transit" d="M512 810.667c-170.667 0-341.333-21.333-341.333-170.667v-405.333c0-82.347 66.987-149.333 149.333-149.333l-64-64v-21.333h512v21.333l-64 64c82.347 0 149.333 66.987 149.333 149.333v405.333c0 149.333-152.747 170.667-341.333 170.667zM753.493 682.667h-479.147c26.027 22.187 87.893 42.667 237.653 42.667 158.293 0 218.453-19.627 241.493-42.667zM469.333 597.334v-128h-213.333v128h213.333zM554.667 597.334h213.333v-128h-213.333v128zM704 170.667h-384c-35.413 0-64 28.587-64 64v149.333h512v-149.333c0-35.413-28.587-64-64-64zM362.667 213.334c35.346 0 64 28.654 64 64s-28.654 64-64 64c-35.346 0-64-28.654-64-64s28.654-64 64-64zM661.333 213.334c35.346 0 64 28.654 64 64s-28.654 64-64 64c-35.346 0-64-28.654-64-64s28.654-64 64-64z" />
<glyph unicode="&#xe93b;" glyph-name="maps-directions" d="M956.8 487.413l-384.427 384.427c-32 32-88.32 32.427-120.747 0l-384-384c-33.28-33.28-33.28-87.040 0-120.32l384-384c16.64-16.64 38.4-24.747 60.16-24.747s43.52 8.107 60.16 24.747l383.573 383.573c33.707 32.427 34.133 86.187 1.28 120.32zM512.213 43.68l-384 384 384 384 384-384-384-384zM596.8 320.481v106.667h-170.667v-85.333c0-23.467-19.2-42.667-42.667-42.667s-42.667 19.2-42.667 42.667v128c0 23.467 19.2 42.667 42.667 42.667h213.333v106.667l134.4-134.4c8.533-8.533 8.533-21.76 0-30.293l-134.4-133.973z" />
<glyph unicode="&#xe93c;" glyph-name="maps-hotel" d="M298.667 362.667c70.827 0 128 57.173 128 128s-57.173 128-128 128c-70.827 0-128-57.173-128-128s57.173-128 128-128zM298.667 533.334c23.467 0 42.667-19.2 42.667-42.667s-19.2-42.667-42.667-42.667c-23.467 0-42.667 19.2-42.667 42.667s19.2 42.667 42.667 42.667zM810.667 661.334h-256c-47.128 0-85.333-38.205-85.333-85.333v-256h-341.333v384c0 23.564-19.103 42.667-42.667 42.667v0c-23.564 0-42.667-19.103-42.667-42.667v-554.667c0-23.564 19.103-42.667 42.667-42.667v0c23.564 0 42.667 19.103 42.667 42.667v85.333h768v-85.333c0-23.564 19.103-42.667 42.667-42.667v0c23.564 0 42.667 19.103 42.667 42.667v341.333c0 94.293-76.373 170.667-170.667 170.667zM874.667 317.044h-292.891c-11.782 0-21.333 9.551-21.333 21.333v216.289c0 11.782 9.551 21.333 21.333 21.333h230.335c46.139 0 83.889-38.843 83.889-86.319v-151.304c0-11.782-9.551-21.333-21.333-21.333z" />
<glyph unicode="&#xe93d;" glyph-name="maps-layers" d="M553.92 147.627c-15.36-11.947-37.12-11.947-52.48 0l-262.4 203.947c-15.295 11.946-36.758 11.946-52.053 0-21.76-17.067-21.76-49.92 0-66.987l288.427-224.427c30.72-23.893 73.813-23.893 104.96 0l288.427 224.427c21.76 17.067 21.76 49.92 0 66.987l-0.427 0.427c-15.295 11.946-36.758 11.946-52.053 0l-262.4-204.373zM580.8 276.48c-30.72-24.32-74.24-24.32-104.96-0.427l-288.427 224.427c-21.76 17.067-21.76 50.347 0 67.413l288.427 224.853c31.147 23.893 74.24 23.893 104.96 0l288.427-224.427c21.76-17.067 21.76-50.347 0-67.413l-288.427-224.427zM561.621 370.746l183.022 142.411c13.808 10.83 13.808 31.948 0 42.777l-183.022 142.411c-19.493 15.162-46.838 15.162-66.603 0l-183.022-142.681c-13.808-10.83-13.808-31.948 0-42.777l183.022-142.411c19.493-15.162 47.109-15.162 66.603 0.271z" />
<glyph unicode="&#xe93e;" glyph-name="maps-local-bank" d="M853.333 768h-682.667c-47.36 0-84.907-37.973-84.907-85.333l-0.427-512c0-47.36 37.973-85.333 85.333-85.333h682.667c47.36 0 85.333 37.973 85.333 85.333v512c0 47.36-37.973 85.333-85.333 85.333zM853.333 213.334c0-23.467-19.2-42.667-42.667-42.667h-597.333c-23.467 0-42.667 19.2-42.667 42.667v426.667c0 23.467 19.2 42.667 42.667 42.667h597.333c23.467 0 42.667-19.2 42.667-42.667v-426.667zM520.377 346.116c0-18.152 11.108-26.55 32.668-26.55 42.794 0 70.395 34.944 70.395 87.728 0 14.633-6.106 21.452-17.883 21.452-15.068-1.128-29.148 6.292-36.561 19.083-10.021 17.291-4.127 39.431 13.164 49.452 2.168 1.256 4.461 2.284 6.838 3.066 6.564 2.16 12.939 3.263 19.108 3.263 53.872 0 91.728-36.868 91.728-95.806 0-92.799-55.393-160.554-146.788-160.554-67.392 0-111.101 36.033-111.101 98.865v79.062h-11.256c-18.561 0-33.609 15.047-33.609 33.609s15.047 33.609 33.609 33.609h11.256v14.314c0 21.583-3.869 26.040-21.452 26.040-20.876 0-37.064 16.188-37.064 36.158 0 19.967 15.869 36.318 35.827 36.916l4.283 0.128c2.141 0.064 2.141 0.064 4.602 0.133 60.565 0 92.238-35.515 92.238-97.846v-16.303c15.911-2.653 28.040-16.485 28.040-33.149s-12.129-30.496-28.040-33.149v-79.521z" />
<glyph unicode="&#xe93f;" glyph-name="maps-local-gas-station" d="M832.853 630.251l0.427 0.427-136.107 136.107c-12.373 12.373-32.853 12.373-45.227 0s-12.373-32.853 0-45.227l67.413-67.413c-44.8-17.067-75.093-62.72-67.413-115.627 6.827-46.933 46.933-84.907 93.867-90.027 20.053-2.133 37.547 1.28 54.187 8.533v-307.627c0-23.467-19.2-42.667-42.667-42.667s-42.667 19.2-42.667 42.667v192c0 46.933-38.4 85.333-85.333 85.333h-42.667v298.667c0 46.933-38.4 85.333-85.333 85.333h-256c-46.933 0-85.333-38.4-85.333-85.333v-640c0-23.467 19.2-42.667 42.667-42.667h341.333c23.467 0 42.667 19.2 42.667 42.667v277.333h64v-207.36c0-55.893 40.107-106.667 95.573-112.213 64-6.4 117.76 43.52 117.76 106.24v405.333c0 29.44-11.947 56.32-31.147 75.52zM501.333 512.064h-256v170.667c0 23.467 19.2 42.667 42.667 42.667h170.667c23.467 0 42.667-19.2 42.667-42.667v-170.667zM245.333 426.858h256v-239.035c0-32.867-19.2-59.759-42.667-59.759h-170.667c-23.467 0-42.667 26.891-42.667 59.759v239.035zM757.333 512.064c-23.467 0-42.667 19.2-42.667 42.667s19.2 42.667 42.667 42.667c23.467 0 42.667-19.2 42.667-42.667s-19.2-42.667-42.667-42.667z" />
<glyph unicode="&#xe940;" glyph-name="maps-local-pharmacy" d="M801.866 697.726h-22.613l30.293 84.053c10.24 27.733-4.267 58.453-32 68.267-27.733 10.24-58.453-4.267-68.693-32l-43.52-120.32h-451.84c-58.453 0-99.413-57.173-81.067-112.213l76.8-229.12-76.373-229.12c-18.773-55.040 22.613-112.213 80.64-112.213h587.947c58.027 0 99.413 57.173 81.067 112.213l-75.947 229.12 75.947 229.12c18.347 55.040-22.613 112.213-80.64 112.213zM725.067 329.512l67.013-201.040c3.726-11.177-2.315-23.259-13.492-26.985-2.175-0.725-4.453-1.095-6.746-1.095h-528.75c-11.782 0-21.333 9.551-21.333 21.333 0 2.293 0.37 4.571 1.095 6.746l75.973 227.92-75.973 227.92c-3.726 11.177 2.315 23.259 13.492 26.985 2.175 0.725 4.453 1.095 6.746 1.095h528.75c11.782 0 21.333-9.551 21.333-21.333 0-2.293-0.37-4.571-1.095-6.746l-75.973-227.92 8.96-26.88zM635.892 313.726h-85.333v-85.333c0-23.467-19.2-42.667-42.667-42.667s-42.667 19.2-42.667 42.667v85.333h-85.333c-23.467 0-42.667 19.2-42.667 42.667s19.2 42.667 42.667 42.667h85.333v85.333c0 23.467 19.2 42.667 42.667 42.667s42.667-19.2 42.667-42.667v-85.333h85.333c23.467 0 42.667-19.2 42.667-42.667s-19.2-42.667-42.667-42.667z" />
<glyph unicode="&#xe941;" glyph-name="maps-map-active" d="M625.28 726.187l-213.333 74.667c-17.92 6.4-37.547 6.4-55.467 0.427l-170.24-57.173c-34.56-11.947-58.027-44.373-58.027-81.067v-505.6c0-60.16 60.16-101.12 116.053-79.36l125.013 48.64c9.387 3.84 20.053 3.84 29.44 0.427l213.333-74.667c17.92-6.4 37.547-6.4 55.467-0.427l170.24 57.173c34.56 11.52 58.027 44.373 58.027 81.067v505.6c0 60.16-60.16 101.12-116.053 79.36l-125.013-48.64c-9.387-3.413-19.627-3.84-29.44-0.427zM596.824 147.625l-170.086 60.106v497.322l170.086-59.215v-498.212z" />
<glyph unicode="&#xe942;" glyph-name="maps-map-inactive" d="M625.28 726.187l-213.333 74.667c-17.92 6.4-37.547 6.4-55.467 0.427l-170.24-57.173c-34.56-11.947-58.027-44.373-58.027-81.067v-505.6c0-60.16 60.16-101.12 116.053-79.36l125.013 48.64c9.387 3.84 20.053 3.84 29.44 0.427l213.333-74.667c17.92-6.4 37.547-6.4 55.467-0.427l170.24 57.173c34.56 11.52 58.027 44.373 58.027 81.067v505.6c0 60.16-60.16 101.12-116.053 79.36l-125.013-48.64c-9.387-3.413-19.627-3.84-29.44-0.427zM596.824 147.625l-170.086 60.106v497.322l170.086-59.215v-498.212zM341.362 207.731l-127.957-50.621v506.265l127.957 41.677v-497.322zM810.695 189.808l-127.957-43.235v499.174l127.957 49.536v-505.475z" />
<glyph unicode="&#xe943;" glyph-name="maps-my-location" d="M360.205 576.411c42.393 42.393 92.991 63.59 151.795 63.59s109.060-20.854 150.769-62.564c41.71-41.71 62.564-91.966 62.564-150.769s-20.854-109.060-62.564-150.769c-41.71-41.71-91.966-62.564-150.769-62.564s-109.060 20.854-150.769 62.564c-41.71 41.71-62.564 91.966-62.564 150.769s20.513 108.718 61.538 149.744zM210.462 728.205c83.419 83.419 183.931 125.128 301.538 125.128s218.119-41.709 301.538-125.128c83.419-83.419 125.128-183.931 125.128-301.538s-41.709-218.119-125.128-301.538c-83.419-83.419-183.931-125.128-301.538-125.128s-218.119 41.709-301.538 125.128c-83.419 83.419-125.128 183.931-125.128 301.538s41.709 218.119 125.128 301.538zM269.949 184.616c67.009-65.641 147.692-98.462 242.051-98.462s174.701 33.162 241.026 99.487c66.325 66.325 99.487 146.666 99.487 241.026s-33.162 174.701-99.487 241.026c-66.325 66.325-146.666 99.487-241.026 99.487s-174.701-33.162-241.026-99.487c-66.325-66.325-99.487-146.666-99.487-241.026s32.82-175.042 98.462-242.051z" />
<glyph unicode="&#xe944;" glyph-name="maps-place" d="M512 853.334c-165.12 0-298.667-133.547-298.667-298.667 0-177.92 188.587-423.253 266.24-516.693 17.067-20.48 48.213-20.48 65.28 0 77.227 93.44 265.813 338.773 265.813 516.693 0 165.12-133.547 298.667-298.667 298.667zM298.667 554.667c0 117.76 95.573 213.333 213.333 213.333s213.333-95.573 213.333-213.333c0-122.88-122.88-306.773-213.333-421.547-88.747 113.92-213.333 299.947-213.333 421.547zM512 448c-58.88 0-106.667 47.787-106.667 106.667s47.787 106.667 106.667 106.667c58.88 0 106.667-47.787 106.667-106.667s-47.787-106.667-106.667-106.667z" />
<glyph unicode="&#xe945;" glyph-name="maps-restaurant" d="M682.667 682.667v-256c0-46.933 38.4-85.333 85.333-85.333h42.667v-298.667c0-23.467 19.2-42.667 42.667-42.667s42.667 19.2 42.667 42.667v762.453c0 27.733-26.027 48.213-52.907 41.813-92.16-22.613-160.427-100.693-160.427-164.267zM469.333 554.667h-85.333v256c0 23.467-19.2 42.667-42.667 42.667s-42.667-19.2-42.667-42.667v-256h-85.333v256c0 23.467-19.2 42.667-42.667 42.667s-42.667-19.2-42.667-42.667v-256c0-94.293 76.373-170.667 170.667-170.667v-341.333c0-23.467 19.2-42.667 42.667-42.667s42.667 19.2 42.667 42.667v341.333c94.293 0 170.667 76.373 170.667 170.667v256c0 23.467-19.2 42.667-42.667 42.667s-42.667-19.2-42.667-42.667v-256z" />
<glyph unicode="&#xe946;" glyph-name="navigation-arrow-back-ios" d="M725.413 811.307c-20.907 20.907-54.613 20.907-75.52 0l-354.56-354.56c-16.64-16.64-16.64-43.52 0-60.16l354.56-354.56c20.907-20.907 54.613-20.907 75.52 0s20.907 54.613 0 75.52l-308.907 309.333 309.333 309.333c20.48 20.48 20.48 54.613-0.427 75.093z" />
<glyph unicode="&#xe947;" glyph-name="navigation-arrow-backward" d="M801.76 469.333c23.467 0 42.667-19.2 42.667-42.667s-19.2-42.667-42.667-42.667h-476.587l207.787-208.64c16.64-16.64 16.64-43.52 0-60.16-7.971-7.989-18.794-12.479-30.080-12.479s-22.109 4.49-30.080 12.479l-280.747 281.6c-16.64 16.64-16.64 43.52 0 60.16l281.173 281.173c16.64 16.64 43.52 16.64 60.16 0s16.64-43.947 0-60.587l-208.213-208.213h476.587z" />
<glyph unicode="&#xe948;" glyph-name="navigation-arrow-down" d="M469.334 716.427c0 23.467 19.2 42.667 42.667 42.667s42.667-19.2 42.667-42.667v-476.587l208.64 207.787c16.64 16.64 43.52 16.64 60.16 0 7.989-7.971 12.479-18.794 12.479-30.080s-4.49-22.109-12.479-30.080l-281.6-280.747c-16.64-16.64-43.52-16.64-60.16 0l-281.173 281.173c-16.64 16.64-16.64 43.52 0 60.16s43.947 16.64 60.587 0l208.213-208.213v476.587z" />
<glyph unicode="&#xe949;" glyph-name="navigation-arrow-forward" d="M222.24 384.001h476.587l-208.213-208.213c-16.64-16.64-16.64-43.947 0-60.587s43.52-16.64 60.16 0l281.173 281.173c16.64 16.64 16.64 43.52 0 60.16l-280.747 281.6c-7.971 7.989-18.794 12.479-30.080 12.479s-22.109-4.49-30.080-12.479c-16.64-16.64-16.64-43.52 0-60.16l207.787-208.64h-476.587c-23.467 0-42.667-19.2-42.667-42.667s19.2-42.667 42.667-42.667z" />
<glyph unicode="&#xe94a;" glyph-name="navigation-check" d="M375.253 261.334l-148.053 148.053c-7.971 7.989-18.794 12.479-30.080 12.479s-22.109-4.49-30.080-12.479c-16.64-16.64-16.64-43.52 0-60.16l178.347-178.347c16.64-16.64 43.52-16.64 60.16 0l451.413 451.413c16.64 16.64 16.64 43.52 0 60.16-7.971 7.989-18.794 12.479-30.080 12.479s-22.109-4.49-30.080-12.479l-421.547-421.12z" />
<glyph unicode="&#xe94b;" glyph-name="navigation-close" d="M780.8 695.041c-7.971 7.989-18.794 12.479-30.080 12.479s-22.109-4.49-30.080-12.479l-208.64-208.213-208.64 208.64c-7.971 7.989-18.794 12.479-30.080 12.479s-22.109-4.49-30.080-12.479c-16.64-16.64-16.64-43.52 0-60.16l208.64-208.64-208.64-208.64c-16.64-16.64-16.64-43.52 0-60.16s43.52-16.64 60.16 0l208.64 208.64 208.64-208.64c16.64-16.64 43.52-16.64 60.16 0s16.64 43.52 0 60.16l-208.64 208.64 208.64 208.64c16.213 16.213 16.213 43.52 0 59.733z" />
<glyph unicode="&#xe94c;" glyph-name="navigation-collapse" d="M346.667 298.667c-16.64-16.64-43.947-16.213-60.587 0-16.64 16.64-16.64 43.52 0 60.16l195.84 195.84c16.64 16.64 43.52 16.64 60.16 0l195.84-195.84c16.64-16.64 16.64-43.52 0-60.16-7.971-7.989-18.794-12.479-30.080-12.479s-22.109 4.49-30.080 12.479l-165.547 165.547-165.547-165.547z" />
<glyph unicode="&#xe94d;" glyph-name="navigation-expand-more" d="M677.333 554.667l-165.547-165.547-165.547 165.547c-7.971 7.989-18.794 12.479-30.080 12.479s-22.109-4.49-30.080-12.479c-16.64-16.64-16.64-43.52 0-60.16l195.84-195.84c16.64-16.64 43.52-16.64 60.16 0l195.84 195.84c16.64 16.64 16.64 43.52 0 60.16-16.64 16.213-43.947 16.64-60.587 0z" />
<glyph unicode="&#xe94e;" glyph-name="navigation-full-screen" d="M256 341.334c-23.467 0-42.667-19.2-42.667-42.667v-128c0-23.467 19.2-42.667 42.667-42.667h128c23.467 0 42.667 19.2 42.667 42.667s-19.2 42.667-42.667 42.667h-85.333v85.333c0 23.467-19.2 42.667-42.667 42.667zM256 512c23.467 0 42.667 19.2 42.667 42.667v85.333h85.333c23.467 0 42.667 19.2 42.667 42.667s-19.2 42.667-42.667 42.667h-128c-23.467 0-42.667-19.2-42.667-42.667v-128c0-23.467 19.2-42.667 42.667-42.667zM725.333 213.334h-85.333c-23.467 0-42.667-19.2-42.667-42.667s19.2-42.667 42.667-42.667h128c23.467 0 42.667 19.2 42.667 42.667v128c0 23.467-19.2 42.667-42.667 42.667s-42.667-19.2-42.667-42.667v-85.333zM597.333 682.667c0-23.467 19.2-42.667 42.667-42.667h85.333v-85.333c0-23.467 19.2-42.667 42.667-42.667s42.667 19.2 42.667 42.667v128c0 23.467-19.2 42.667-42.667 42.667h-128c-23.467 0-42.667-19.2-42.667-42.667z" />
<glyph unicode="&#xe94f;" glyph-name="navigation-menu" d="M170.667 170.667h682.667c23.467 0 42.667 19.2 42.667 42.667s-19.2 42.667-42.667 42.667h-682.667c-23.467 0-42.667-19.2-42.667-42.667s19.2-42.667 42.667-42.667zM170.667 384h682.667c23.467 0 42.667 19.2 42.667 42.667s-19.2 42.667-42.667 42.667h-682.667c-23.467 0-42.667-19.2-42.667-42.667s19.2-42.667 42.667-42.667zM128 640c0-23.467 19.2-42.667 42.667-42.667h682.667c23.467 0 42.667 19.2 42.667 42.667s-19.2 42.667-42.667 42.667h-682.667c-23.467 0-42.667-19.2-42.667-42.667z" />
<glyph unicode="&#xe950;" glyph-name="navigation-more-horiz" d="M256 512c-46.933 0-85.333-38.4-85.333-85.333s38.4-85.333 85.333-85.333c46.933 0 85.333 38.4 85.333 85.333s-38.4 85.333-85.333 85.333zM768 512c-46.933 0-85.333-38.4-85.333-85.333s38.4-85.333 85.333-85.333c46.933 0 85.333 38.4 85.333 85.333s-38.4 85.333-85.333 85.333zM512 512c-46.933 0-85.333-38.4-85.333-85.333s38.4-85.333 85.333-85.333c46.933 0 85.333 38.4 85.333 85.333s-38.4 85.333-85.333 85.333z" />
<glyph unicode="&#xe951;" glyph-name="social-facebook" d="M699.733 725.334v-51.2c0-23.564-19.103-42.667-42.667-42.667h-59.733c-23.552 0-34.133-27.648-34.133-51.2v-85.333h59.733c23.564 0 42.667-19.103 42.667-42.667v-51.2c0-23.564-19.103-42.667-42.667-42.667h-59.733v-230.4c0-23.564-19.103-42.667-42.667-42.667h-51.2c-23.564 0-42.667 19.103-42.667 42.667v230.4h-59.733c-23.564 0-42.667 19.103-42.667 42.667v51.2c0 23.564 19.103 42.667 42.667 42.667h59.733v136.533c0 75.405 61.128 136.533 136.533 136.533h93.867c23.564 0 42.667-19.103 42.667-42.667z" />
<glyph unicode="&#xe952;" glyph-name="social-group" d="M384 426.667c82.347 0 149.333 66.987 149.333 149.333s-66.987 149.333-149.333 149.333c-82.347 0-149.333-66.987-149.333-149.333s66.987-149.333 149.333-149.333zM384 640c35.413 0 64-28.587 64-64s-28.587-64-64-64c-35.413 0-64 28.587-64 64s28.587 64 64 64zM384 352c-99.84 0-298.667-49.92-298.667-149.333v-32c0-23.467 19.2-42.667 42.667-42.667h512c23.467 0 42.667 19.2 42.667 42.667v32c0 99.413-198.827 149.333-298.667 149.333zM185.173 213.334c35.84 24.747 122.453 53.333 198.827 53.333s162.987-28.587 198.827-53.333h-397.653zM684.373 349.44c49.493-35.84 83.627-83.627 83.627-146.773v-74.667h128c23.467 0 42.667 19.2 42.667 42.667v32c0 86.187-149.333 135.253-254.293 146.773zM640 426.667c82.347 0 149.333 66.987 149.333 149.333s-66.987 149.333-149.333 149.333c-23.040 0-44.373-5.547-64-14.933 26.88-37.973 42.667-84.48 42.667-134.4s-15.787-96.427-42.667-134.4c19.627-9.387 40.96-14.933 64-14.933z" />
<glyph unicode="&#xe953;" glyph-name="social-instagram" d="M512 604.215c-96.344 0-176.172-78.452-176.172-176.172s78.452-176.172 176.172-176.172c97.72 0 176.172 79.828 176.172 176.172s-79.828 176.172-176.172 176.172zM512 315.183c-61.935 0-112.86 50.925-112.86 112.86s50.925 112.86 112.86 112.86c61.935 0 112.86-50.925 112.86-112.86s-50.925-112.86-112.86-112.86zM695.054 568.43c22.044 0 39.914 17.87 39.914 39.914s-17.87 39.914-39.914 39.914c-22.044 0-39.914-17.87-39.914-39.914s17.87-39.914 39.914-39.914zM798.28 711.57c-35.785 37.161-86.71 56.43-144.516 56.43h-283.527c-119.742 0-199.57-79.828-199.57-199.57v-282.151c0-59.183 19.269-110.108 57.806-147.269 37.161-35.785 86.71-53.677 143.14-53.677h280.774c59.183 0 108.731 19.269 144.516 53.677 37.161 35.785 56.43 86.71 56.43 145.892v283.527c0 57.806-19.269 107.355-55.054 143.14zM792.774 284.904c0-42.667-15.14-77.075-39.914-100.473s-59.183-35.785-100.473-35.785h-280.774c-41.29 0-75.699 12.387-100.473 35.785-24.774 24.774-37.161 59.183-37.161 101.849v282.151c0 41.29 12.387 75.699 37.161 100.473 23.398 23.398 59.183 35.785 100.473 35.785h283.527c41.29 0 75.699-12.387 100.473-37.161 23.398-24.774 37.161-59.183 37.161-99.097v-283.527z" />
<glyph unicode="&#xe954;" glyph-name="social-notifications-none" d="M831.023 206.113l-56.451 56.451v218.803c0 134.345-71.768 246.81-196.923 276.568v29.757c0 36.321-29.32 65.641-65.641 65.641s-65.641-29.32-65.641-65.641v-29.757c-125.593-29.757-196.923-141.785-196.923-276.568v-218.803l-56.451-56.451c-27.569-27.569-8.315-74.831 30.632-74.831h576.328c39.385 0 58.639 47.262 31.070 74.831zM687.050 218.804h-350.085v262.564c0 108.526 66.079 196.923 175.043 196.923s175.043-88.397 175.043-196.923v-262.564zM512.007-0c48.137 0 87.521 39.385 87.521 87.521h-175.043c0-48.137 38.947-87.521 87.521-87.521z" />
<glyph unicode="&#xe955;" glyph-name="social-person-add" d="M256 512v85.333c0 23.467-19.2 42.667-42.667 42.667s-42.667-19.2-42.667-42.667v-85.333h-85.333c-23.467 0-42.667-19.2-42.667-42.667s19.2-42.667 42.667-42.667h85.333v-85.333c0-23.467 19.2-42.667 42.667-42.667s42.667 19.2 42.667 42.667v85.333h85.333c23.467 0 42.667 19.2 42.667 42.667s-19.2 42.667-42.667 42.667h-85.333zM640 686.934c49.493 0 89.6-40.107 89.6-89.6s-40.107-89.6-89.6-89.6c-49.493 0-89.6 40.107-89.6 89.6s40.107 89.6 89.6 89.6zM640 302.934c126.72 0 260.267-62.293 260.267-89.6v-46.933h-520.533v46.933c0 27.307 133.547 89.6 260.267 89.6zM640 768c-94.293 0-170.667-76.373-170.667-170.667s76.373-170.667 170.667-170.667c94.293 0 170.667 76.373 170.667 170.667s-76.373 170.667-170.667 170.667zM640 384c-113.92 0-341.333-57.173-341.333-170.667v-85.333c0-23.467 19.2-42.667 42.667-42.667h597.333c23.467 0 42.667 19.2 42.667 42.667v85.333c0 113.493-227.413 170.667-341.333 170.667z" />
<glyph unicode="&#xe956;" glyph-name="social-person-disabled" d="M339.429 254.803v35.014c0 20.371 99.629 66.843 194.165 66.843 1.206 0 2.413-0.013 3.62-0.026l-56.31 56.35c-87.921-12.582-201.953-53.75-201.953-123.166v-63.662c0-17.506 14.325-31.829 31.831-31.829h388.623l-60.435 60.477h-299.541zM788.236 289.817c0 45.24-48.439 78.48-106.515 99.633l106.515-106.593v6.96zM533.594 643.135c36.924 0 66.843-29.923 66.843-66.843 0-28.527-17.864-52.857-43.014-62.456l44.766-44.798c35.314 22.624 58.727 62.179 58.727 107.254 0 70.343-56.977 127.32-127.322 127.32-45.041 0-84.57-23.379-107.203-58.648l44.766-44.798c9.61 25.123 33.929 42.969 62.437 42.969zM848.548 133.92c-2.27 1.339-4.425 2.948-6.374 4.899l-619.021 619.466c-1.765 1.765-3.251 3.697-4.513 5.732-12.202 7.197-28.158 5.596-38.642-4.882-12.435-12.426-12.443-32.579-0.015-45.014l619.021-619.468c12.428-12.434 32.581-12.441 45.016-0.013 10.671 10.661 12.16 26.998 4.528 39.281z" />
<glyph unicode="&#xe957;" glyph-name="social-person-done" d="M640 686.934c49.493 0 89.6-40.107 89.6-89.6s-40.107-89.6-89.6-89.6c-49.493 0-89.6 40.107-89.6 89.6s40.107 89.6 89.6 89.6zM640 768c-94.293 0-170.667-76.373-170.667-170.667s76.373-170.667 170.667-170.667c94.293 0 170.667 76.373 170.667 170.667s-76.373 170.667-170.667 170.667zM640 384c113.92 0 341.333-57.173 341.333-170.667v-85.333c0-23.467-19.2-42.667-42.667-42.667h-597.333c-23.467 0-42.667 19.2-42.667 42.667v85.333c0 113.493 227.413 170.667 341.333 170.667zM640 302.934c-126.72 0-260.267-62.293-260.267-89.6v-46.933h520.533v46.933c0 27.307-133.547 89.6-260.267 89.6zM356.025 625.452l2.88-2.88c12.482-12.482 12.482-32.645 0-45.127l-178.588-178.908c-12.482-12.482-32.645-12.482-45.127 0l-98.896 98.896c-5.993 5.98-9.361 14.098-9.361 22.564s3.368 16.584 9.361 22.564l2.88 2.88c12.482 12.482 32.645 12.482 45.127 0l73.612-73.612 152.984 153.304c12.162 12.802 32.645 12.802 45.127 0.32z" />
<glyph unicode="&#xe958;" glyph-name="social-person-outline" d="M512 686.934c49.493 0 89.6-40.107 89.6-89.6s-40.107-89.6-89.6-89.6c-49.493 0-89.6 40.107-89.6 89.6s40.107 89.6 89.6 89.6zM512 302.934c126.72 0 260.267-62.293 260.267-89.6v-46.933h-520.533v46.933c0 27.307 133.547 89.6 260.267 89.6zM512 768c-94.293 0-170.667-76.373-170.667-170.667s76.373-170.667 170.667-170.667c94.293 0 170.667 76.373 170.667 170.667s-76.373 170.667-170.667 170.667zM512 384c-113.92 0-341.333-57.173-341.333-170.667v-85.333c0-23.467 19.2-42.667 42.667-42.667h597.333c23.467 0 42.667 19.2 42.667 42.667v85.333c0 113.493-227.413 170.667-341.333 170.667z" />
<glyph unicode="&#xe959;" glyph-name="social-share" d="M768 252.587c-32.427 0-61.44-12.8-83.627-32.853l-304.213 177.067c2.133 9.813 3.84 19.627 3.84 29.867s-1.707 20.053-3.84 29.867l300.8 175.36c23.040-21.333 53.333-34.56 87.040-34.56 70.827 0 128 57.173 128 128s-57.173 128-128 128c-70.827 0-128-57.173-128-128 0-10.24 1.707-20.053 3.84-29.867l-300.8-175.36c-23.040 21.333-53.333 34.56-87.040 34.56-70.827 0-128-57.173-128-128s57.173-128 128-128c33.707 0 64 13.227 87.040 34.56l303.787-177.493c-2.133-8.96-3.413-18.347-3.413-27.733 0-68.693 55.893-124.587 124.587-124.587s124.587 55.893 124.587 124.587c0 68.693-55.893 124.587-124.587 124.587zM768 768c23.467 0 42.667-19.2 42.667-42.667s-19.2-42.667-42.667-42.667c-23.467 0-42.667 19.2-42.667 42.667s19.2 42.667 42.667 42.667zM256 384c-23.467 0-42.667 19.2-42.667 42.667s19.2 42.667 42.667 42.667c23.467 0 42.667-19.2 42.667-42.667s-19.2-42.667-42.667-42.667zM768 84.48c-23.467 0-42.667 19.2-42.667 42.667s19.2 42.667 42.667 42.667c23.467 0 42.667-19.2 42.667-42.667s-19.2-42.667-42.667-42.667z" />
<glyph unicode="&#xe95a;" glyph-name="social-twitter" d="M503.887 512.12c0 0-105.484-24.463-223.191 113.128 0 0-45.86-90.198 33.638-145.225 0 0-25.977-4.588-47.402 10.69 0 0-9.176-77.957 85.61-108.531h-50.448c0 0 13.773-62.679 102.429-76.434 0 0-36.685-48.916-155.933-45.86 0 0 67.276-51.971 169.705-50.439 0 0 189.544-9.176 279.741 204.849 22.178 52.633 19.875 102.411 18.342 126.882l58.092 51.962-58.092-10.699c0 0 39.749 29.041 44.346 56.559l-64.212-25.986c0 0-48.154 43.566-129.947 25.986-0.009 0-74.902-15.287-62.679-126.882zM563.669 713.444c55.316 10.876 104.995 2.986 146.833-17.206 2.281-1.101 4.486-2.211 6.613-3.326l40.999 16.592c42.224 17.088 86.847-18.653 79.426-63.566 20.107-22.088 23.297-58.995-3.876-83.301l-42.050-37.613c0.516-46.25-5.827-87.717-25.304-133.939-34.722-82.39-84.512-144.354-145.426-187.454-43.055-30.464-89.122-49.808-135.549-60.217-30.007-6.728-55.464-8.827-74.195-8.36-57.178-0.645-109.846 11.447-156.836 32.017-27.959 12.239-48.499 24.883-60.842 34.419-44.624 34.472-19.219 105.908 37.151 104.463 10.821-0.277 20.957-0.119 30.437 0.431-17.949 21.281-27.477 42.681-31.347 60.29-1.344 6.116-1.679 12.177-1.13 18.029-3.725 4.494-7.197 9.157-10.416 13.981-22.808 34.183-29.537 69.324-27.648 99.33 0.218 2.962 0.218 2.962 0.414 4.736 1.026 8.715 3.826 16.582 7.937 23.395-12.078 38.478-9.337 77.17 2.043 113.599 3.701 11.848 7.597 21.115 10.759 27.334 18.84 37.054 69.289 43.068 96.311 11.481 42.547-49.734 84.572-79.305 124.653-93.634 4.973-1.778 9.75-3.271 14.32-4.509 12.758 80.533 65.769 128.7 116.722 133.029zM291.286 542.121c0.012 0.001-0.049-0.006-0.127-0.016l0.127 0.016z" />
<glyph unicode="&#xe95b;" glyph-name="social-youtube" d="M433.794 515.535c0 13.677 15.062 21.987 26.661 14.542l140.924-89.505c10.734-6.925 10.734-22.506 0-29.258l-140.924-89.679c-11.599-7.444-26.661 0.866-26.661 14.542v179.357zM805.534 643.686c-36.248 9.854-138.116 15.708-292.071 15.736l-63.135-2.355c-43.653 0-89.15-1.237-137.487-3.839-48.595-2.209-79.723-5.49-94.168-9.486-21.801-6.056-34.056-18.311-40.055-39.905-10.086-37.104-15.708-97.445-15.807-174.407l2.426-35.345c0-23.041 1.206-48.822 3.77-78.166 2.198-29.312 5.398-51.19 9.554-66.217 6.056-21.801 18.311-34.056 39.905-40.055 36.248-9.854 138.116-15.708 292.071-15.736l63.135 2.355c43.653 0 89.15 1.237 137.487 3.839 48.595 2.209 79.723 5.49 94.168 9.486 21.801 6.056 34.056 18.311 40.055 39.905 10.086 37.104 15.708 97.445 15.807 174.407l-2.426 35.345c0 23.041-1.206 48.822-3.77 78.166-2.197 29.299-5.395 51.17-9.56 66.237-6.058 21.788-18.312 34.037-39.9 40.034zM920.185 624.394c5.753-20.799 9.624-47.267 12.128-80.697 2.716-31.039 4.026-59.064 3.928-81.684l2.426-35.345c0-86.002-6.2-152.55-18.482-197.727-13.338-48.017-46.077-80.756-94.136-94.106-21.826-6.037-57.138-9.759-111.043-12.208-49.395-2.66-96.282-3.935-139.871-3.907l-63.135-2.355c-162.875 0-268.42 6.066-314.090 18.482-48.017 13.338-80.756 46.077-94.106 94.136-5.742 20.758-9.612 47.226-12.117 80.656-2.716 31.039-4.026 59.064-3.928 81.684l-2.426 35.345c0 86.002 6.2 152.55 18.482 197.727 13.338 48.017 46.077 80.756 94.136 94.106 21.826 6.037 57.138 9.759 111.043 12.208 49.395 2.66 96.282 3.935 139.871 3.907l63.135 2.355c162.875 0 268.42-6.066 314.090-18.482 48.017-13.338 80.756-46.077 94.095-94.095z" />
<glyph unicode="&#xe95c;" glyph-name="av_round-play_circle_outline-24px" d="M460.8 260.267l199.253 149.333c11.52 8.533 11.52 25.6 0 34.133l-199.253 149.333c-14.080 10.667-34.133 0.427-34.133-17.067v-298.667c0-17.493 20.053-27.733 34.133-17.067zM512 853.334c-235.52 0-426.667-191.147-426.667-426.667s191.147-426.667 426.667-426.667 426.667 191.147 426.667 426.667-191.147 426.667-426.667 426.667zM512 85.334c-188.16 0-341.333 153.173-341.333 341.333s153.173 341.333 341.333 341.333 341.333-153.173 341.333-341.333-153.173-341.333-341.333-341.333z" />
<glyph unicode="&#xe95d;" glyph-name="action_1" d="M401.974 718.071v92.596h220.051v-768h-104.579v675.404z" />
<glyph unicode="&#xe95e;" glyph-name="action_cloud_upload" d="M825.6 510.294c-29.013 147.2-158.293 257.707-313.6 257.707-123.307 0-230.4-69.973-283.733-172.373-128.427-13.653-228.267-122.453-228.267-254.293 0-141.227 114.773-256 256-256h554.667c117.76 0 213.333 95.573 213.333 213.333 0 112.64-87.467 203.947-198.4 211.627zM810.667 170.667h-554.667c-94.293 0-170.667 76.373-170.667 170.667 0 87.467 65.28 160.427 151.893 169.387l45.653 4.693 21.333 40.533c40.533 78.080 119.893 126.72 207.787 126.72 111.787 0 208.213-79.36 229.973-189.013l12.8-64 65.28-4.693c66.56-4.267 118.613-60.16 118.613-126.293 0-70.4-57.6-128-128-128zM341.333 384h108.8v-128h123.733v128h108.8l-170.667 170.667-170.667-170.667z" />
<glyph unicode="&#xe95f;" glyph-name="action_home" d="M477.775 100.054v213.333h85.333v-213.333c0-23.467 19.2-42.667 42.667-42.667h170.667c23.467 0 42.667 19.2 42.667 42.667v298.667h72.533c19.627 0 29.013 24.32 14.080 37.12l-356.693 321.28c-16.213 14.507-40.96 14.507-57.173 0l-356.693-321.28c-14.507-12.8-5.547-37.12 14.080-37.12h72.533v-298.667c0-23.467 19.2-42.667 42.667-42.667h170.667c23.467 0 42.667 19.2 42.667 42.667zM733.775 466.446v-302.392c0-11.782-9.551-21.333-21.333-21.333h-42.667c-11.782 0-21.333 9.551-21.333 21.333v234.667h-256v-234.667c0-11.782-9.551-21.333-21.333-21.333h-42.667c-11.782 0-21.333 9.551-21.333 21.333v302.392c0 6.048 2.567 11.811 7.062 15.857l192 172.8c8.113 7.302 20.429 7.302 28.542 0l192-172.8c4.495-4.046 7.062-9.809 7.062-15.857z" />
<glyph unicode="&#xe960;" glyph-name="editor_attach_money_bdt" d="M369.536 304.939v127.488h-37.632c-22.272 0-34.56 12.288-34.56 34.56v1.536c0 21.504 12.288 33.792 34.56 33.792h37.632v44.544c0 40.704-11.52 52.224-39.168 55.296-19.968 2.304-33.024 12.288-33.024 37.632v1.536c0 26.112 17.664 39.936 48.384 39.936 76.032 0 110.592-54.528 110.592-131.328v-47.616h12.288c21.504 0 33.024-12.288 33.024-33.792v-1.536c0-22.272-11.52-34.56-33.024-34.56h-12.288v-127.488c0-40.704 29.952-55.296 66.816-55.296 76.8 0 122.88 58.368 122.88 139.776 0 29.184-6.144 50.688-20.736 58.368-1.536-29.952-16.128-49.92-49.152-49.92-35.328 0-56.832 20.736-56.832 56.832 0 50.688 34.56 72.96 82.944 72.96 82.176 0 124.416-56.064 124.416-141.312 0-113.664-65.28-214.272-203.52-214.272-88.32 0-153.6 43.776-153.6 132.864z" />
<glyph unicode="&#xe961;" glyph-name="action_sensor_hub" d="M725.333 255.907l-170.667 170.667v135.68c57.6 20.907 96.427 80.64 82.347 147.627-10.667 50.347-52.48 90.453-103.253 98.987-80.213 13.227-149.76-48.213-149.76-126.293 0-55.467 35.84-102.4 85.333-120.32v-135.68l-170.667-170.667h-128c-23.467 0-42.667-19.2-42.667-42.667v-128c0-23.467 19.2-42.667 42.667-42.667h128c23.467 0 42.667 19.2 42.667 42.667v87.467l170.667 179.2 170.667-179.2v-87.467c0-23.467 19.2-42.667 42.667-42.667h128c23.467 0 42.667 19.2 42.667 42.667v128c0 23.467-19.2 42.667-42.667 42.667h-128z" />
<glyph unicode="&#xe962;" glyph-name="maps_car_vibration" d="M806.39 724.035c-8.508 25.1-32.332 42.967-60.409 42.967h-467.961c-28.078 0-51.476-17.868-60.409-42.967l-88.487-254.826v-319.064c0-35.243 28.57-63.813 63.813-63.813v0c35.243 0 63.813 28.57 63.813 63.813v21.271h510.502v-21.271c0-35.243 28.57-63.813 63.813-63.813v0c35.243 0 63.813 28.57 63.813 63.813v319.064l-88.487 254.826zM323.259 681.918h377.057c18.169 0 34.345-11.506 40.306-28.67l35.989-103.635h-529.646l35.989 103.635c5.96 17.164 22.136 28.67 40.306 28.67zM788.46 256.5h-552.919c-11.782 0-21.333 9.551-21.333 21.333v170.043c0 11.782 9.551 21.333 21.333 21.333h552.919c11.782 0 21.333-9.551 21.333-21.333v-170.043c0-11.782-9.551-21.333-21.333-21.333zM703.438 299.041c35.243 0 63.813 28.57 63.813 63.813s-28.57 63.813-63.813 63.813c-35.243 0-63.813-28.57-63.813-63.813s28.57-63.813 63.813-63.813zM320.562 299.041c-35.243 0-63.813 28.57-63.813 63.813s28.57 63.813 63.813 63.813c35.243 0 63.813-28.57 63.813-63.813s-28.57-63.813-63.813-63.813zM42.667 298.667c-23.467 0-42.667 19.2-42.667 42.667v170.667c0 23.467 19.2 42.667 42.667 42.667s42.667-19.2 42.667-42.667v-170.667c0-23.467-19.2-42.667-42.667-42.667zM938.667 512c0 23.467 19.2 42.667 42.667 42.667s42.667-19.2 42.667-42.667v-170.667c0-23.467-19.2-42.667-42.667-42.667s-42.667 19.2-42.667 42.667v170.667z" />
<glyph unicode="&#xe963;" glyph-name="maps_bus" d="M512 832c-188.587 0-341.333-21.333-341.333-170.667v-426.667c0-37.547 16.64-71.253 42.667-94.72v-75.947c0-23.467 19.2-42.667 42.667-42.667h42.667c23.467 0 42.667 19.2 42.667 42.667v42.667h341.333v-42.667c0-23.467 19.2-42.667 42.667-42.667h42.667c23.467 0 42.667 19.2 42.667 42.667v75.947c26.027 23.467 42.667 57.173 42.667 94.72v426.667c0 149.333-152.747 170.667-341.333 170.667zM753.493 704.427h-482.987c23.467 22.613 84.053 42.24 241.493 42.24s218.027-19.627 241.493-42.24zM768 619.094v-128.427h-512v128.427h512zM753.493 203.52l-12.373-11.52h-458.24l-12.373 11.52c-5.547 4.693-14.507 15.36-14.507 31.147v170.667h512v-170.667c0-15.787-8.96-26.453-14.507-31.147zM362.667 234.667c-35.346 0-64 28.654-64 64s28.654 64 64 64c35.346 0 64-28.654 64-64s-28.654-64-64-64zM661.333 234.667c-35.346 0-64 28.654-64 64s28.654 64 64 64c35.346 0 64-28.654 64-64s-28.654-64-64-64z" />
<glyph unicode="&#xe964;" glyph-name="car_collision" d="M85.333 744.945c1.008 2.205 2.105 4.375 3.012 6.622 10.635 26.395 42.202 35.733 64.915 18.622 83.17-62.66 137.772-144.448 161.752-245.872 6.415-27.133 9.232-55.118 13.767-83.13h91.545c-8.49 8.51-15.643 15.577-22.677 22.763-5.038 5.15-6.098 11.232-2.698 17.547 3.305 6.138 9.012 8.235 15.59 6.615 2.782-0.683 5.578-2.563 7.665-4.617 15.243-15.002 30.382-30.113 45.397-45.343 7.66-7.768 7.61-15.348-0.18-23.257-14.817-15.040-29.763-29.948-44.777-44.79-7.047-6.965-15.445-7.482-21.39-1.692-6.23 6.067-5.767 14.653 1.597 21.978 6.64 6.607 13.617 12.877 20.445 19.295-0.372 0.648-0.742 1.298-1.115 1.95h-90.753c-1.638-14.743-2.852-30.46-5.2-46.005-15.193-100.577-60.338-185.398-134.933-254.475-9.965-9.232-20.678-17.688-31.368-26.093-25.683-20.193-57.943-10.498-68.975 20.51-0.347 0.97-1.070 1.807-1.617 2.705v16.667c4.087 16.143 16.118 25.66 28.313 35.62 73.815 60.303 117.49 138.092 125.893 232.842 10.923 123.143-34.122 224.18-129.827 302.335-11.078 9.047-20.423 18.553-24.38 32.537v16.667zM938.667 108.278c-0.688-1.435-1.497-2.827-2.047-4.315-10.763-29.205-43.103-38.433-67.92-19.475-85.5 65.313-139.815 150.598-162.492 255.658-5.070 23.488-6.967 47.662-10.377 71.893h-92.033c6.478-6.558 11.603-11.708 16.685-16.902 2.715-2.773 5.692-5.375 7.952-8.492 4.108-5.665 3.147-13.508-1.765-18.228-4.932-4.74-13.18-5.812-18.212-0.945-17.162 16.595-34.102 33.437-50.583 50.703-5.242 5.493-4.268 12.797 0.925 18.15 15.855 16.343 31.978 32.432 48.267 48.342 5.8 5.663 14.113 5.332 19.527 0.147 5.635-5.395 6.132-14.13 0.29-20.145-7.095-7.305-14.838-13.982-22.298-20.932 0.442-0.718 0.885-1.435 1.328-2.155h90.662c1.648 14.847 2.8 30.575 5.213 46.108 18.163 116.938 74.805 211.027 168.952 282.503 22.615 17.17 54.312 7.72 64.92-18.623 0.905-2.248 2-4.42 3.007-6.627v-16.667c-3.802-11.925-10.493-21.452-20.508-29.427-101.327-80.68-147.235-185.562-132.693-314.543 10.477-92.932 54.822-168.308 128.103-226.343 11.437-9.055 21.103-18.68 25.098-33.020v-16.667zM400.814 286.768c14.917 0 28.472 0.013 42.028-0.005 13.18-0.017 19.3-8.053 15.458-20.743-4.235-13.993-8.817-27.88-11.87-42.797 8.923 7.722 17.818 15.478 26.778 23.158 13.92 11.93 23.995 8.665 28.685-9.245 2.95-11.262 5.892-22.527 8.887-33.775 0.1-0.372 0.773-0.588 2.055-1.502 3.155 11.965 6.245 23.572 9.273 35.197 4.753 18.23 14.85 21.278 29.282 8.83 8.408-7.255 16.838-14.485 25.292-21.688 0.337-0.288 0.983-0.21 2.36-0.463-4.353 13.812-8.592 27.22-12.803 40.635-4.62 14.702 1.138 22.527 16.503 22.377 6.663-0.065 13.327-0.318 19.99-0.392 6.342-0.070 12.687-0.015 20.020-0.015-2.093 1.923-3.692 3.61-5.505 5.023-9.418 7.335-18.893 14.598-28.343 21.892-9.318 7.192-11.402 15.445-5.708 22.575 5.667 7.095 13.588 7.228 22.705 0.228 18.495-14.202 36.948-28.462 55.417-42.702 4.837-3.728 9.598-7.56 14.515-11.18 6.168-4.54 8.28-10.567 5.642-17.562-2.568-6.815-8.37-9.128-15.427-8.878-18.595 0.655-37.19 1.24-55.787 1.81-3.578 0.108-7.165 0.015-11.793 0.015 2.62-8.528 5.058-16.63 7.602-24.7 5-15.86 10.115-31.687 15.075-47.56 3.032-9.693 1.412-16.087-5.073-19.88-7.498-4.385-13.608-1.548-19.547 3.688-14.787 13.038-29.78 25.842-44.708 38.72-1.828 1.575-3.763 3.025-6.453 5.18-5.678-21.458-11.123-42.050-16.573-62.643-0.992-3.752-1.953-7.512-3.002-11.247-1.952-6.96-6.437-10.967-13.793-10.952-7.333 0.015-11.912 3.938-13.782 10.953-5.923 22.235-11.788 44.483-17.697 66.72-0.56 2.105-1.268 4.167-2.203 7.213-14.645-12.64-28.663-24.74-42.682-36.838-3.363-2.902-6.732-5.798-10.097-8.698-5.715-4.923-11.948-5.968-18.298-1.613-6.452 4.425-7.117 10.883-4.933 17.825 6.733 21.418 13.555 42.81 20.328 64.218 0.908 2.87 1.727 5.768 2.885 9.652-4.145 0-7.6 0.095-11.050-0.015-18.872-0.595-37.745-1.213-56.615-1.885-7.080-0.25-12.817 2.208-15.36 9.003-2.627 7.018-0.357 12.913 5.71 17.553 24.033 18.387 47.91 36.977 71.987 55.308 7.533 5.733 15.507 4.777 20.662-1.787 5.227-6.655 3.808-15.025-3.848-21.035-11.743-9.217-23.617-18.272-36.187-27.975zM511.061 650.953c-3.063-11.612-6.152-23.217-9.185-34.837-4.663-17.867-14.805-21.187-28.688-9.295-8.963 7.678-17.84 15.455-28.095 22.217 4.228-13.415 8.507-26.815 12.672-40.25 4.598-14.83-1.132-22.45-16.503-22.322-12.987 0.108-25.973 0.022-40.445 0.022 8.327-6.438 16.047-12.413 23.777-18.382 4.175-3.223 8.422-6.357 12.532-9.66 7.22-5.802 8.83-13.922 4.173-20.44-4.993-6.987-13.452-8.153-21.212-2.263-21.228 16.113-42.272 32.472-63.385 48.737-2.86 2.203-5.653 4.495-8.572 6.617-6.2 4.51-8.252 10.578-5.583 17.567 2.598 6.812 8.432 9.083 15.47 8.837 18.595-0.65 37.19-1.243 55.788-1.813 3.573-0.11 7.153-0.015 11.748-0.015-3.645 11.777-7.090 23.077-10.645 34.34-4.090 12.953-8.277 25.873-12.423 38.808-2.318 7.235-1.925 13.993 4.877 18.577 7.122 4.798 13.495 2.512 19.577-2.83 16.675-14.642 33.543-29.060 51.343-44.438 1.88 6.467 3.643 12.085 5.142 17.772 4.655 17.697 9.182 35.427 13.817 53.128 2.587 9.878 7.148 14.128 14.872 14.075 7.738-0.053 12.045-4.2 14.695-14.28 5.642-21.448 11.238-42.91 16.888-64.357 0.485-1.842 1.228-3.615 2.128-6.225 17.453 15.070 34.332 29.843 51.495 44.275 3.013 2.533 7.11 4.813 10.902 5.182 10.442 1.013 16.922-8.852 13.428-20.215-6.682-21.727-13.697-43.352-20.558-65.023-0.825-2.603-1.552-5.237-2.632-8.908 3.608 0 6.5-0.082 9.385 0.013 19.152 0.623 38.303 1.225 57.45 1.96 7.312 0.282 13.49-1.72 16.225-8.952 2.827-7.472-0.107-13.32-6.353-18.085-23.62-18.017-47.065-36.263-70.675-54.292-8.020-6.123-16.020-5.488-21.347 1.217-5.375 6.765-3.687 15.2 4.485 21.575 11.562 9.017 23.2 17.932 35.767 27.633-11.908 0-22.485 0.013-33.062-0.008-3.332-0.007-6.665-0.182-9.997-0.158-12.127 0.082-18.322 8.12-14.843 19.863 4.232 14.288 8.915 28.443 12.072 43.657-9.113-7.872-18.195-15.783-27.353-23.603-13.093-11.18-23.407-7.902-27.865 8.838-3.168 11.898-6.253 23.82-9.375 35.732l-1.91 0.012z" />
<glyph unicode="&#xe965;" glyph-name="car_door" d="M865.488 710.779h-21.024c-112.338 0-224.679 0.083-337.017-0.033-57.947-0.058-106.6-21.828-145.421-64.63-61.49-67.795-122.273-136.239-183.859-203.947-20.733-22.79-25.651-47.599-16.685-76.727 19.346-62.844 37.872-125.946 56.789-188.927 8.986-29.906 13.808-33.5 45.688-33.504 194.165-0.033 388.335-0.025 582.5 0.029 6.034 0.004 12.063 0.729 19.030 1.17v566.568zM937.83 780.723v-191.567c-0.004-140.795-1.541-281.614 0.67-422.38 1.037-65.963-28.395-96.302-94.366-95.636-195.569 1.965-391.171 0.645-586.76 0.733-54.849 0.025-89.569 26.121-105.55 78.967-20.042 66.267-40.437 132.433-59.725 198.921-14.82 51.080-4.909 97.297 31.051 137.259 63.094 70.11 125.575 140.786 189.481 210.151 49.194 53.391 111.255 83.248 183.859 84.114 142.161 1.695 284.363 0.533 426.54 0.504 4.018 0 8.037-0.562 14.799-1.066v0zM723.308 568.751c-62.057 0-122.41-2.282-182.493 0.783-41.382 2.115-70.275-11.504-96.373-43.452l-55.29-62.336h334.156v105.005zM260.876 393.793c-4.285-0.101-7.84 3.29-7.942 7.574-0.043 1.83 0.562 3.616 1.708 5.044 71.874 89.474 124.889 153.141 159.044 191.001 25.496 28.266 57.226 42.502 95.515 42.436 94.282-0.171 188.561-0.054 285.354-0.054v-226.11c0-11.585-9.246-21.053-20.829-21.327l-512.851 1.437z" />
<glyph unicode="&#xe966;" glyph-name="maps_2d" d="M42.667 234.632c76.673 52.535 138.081 104.004 184.226 154.409s69.218 97.142 69.218 140.211c0 25.558-6.271 45.909-18.813 61.054s-32.775 22.718-60.699 22.718c-28.871 0-50.641-9.347-65.313-28.042s-22.954-45.317-24.847-79.867h-78.802c3.313 57.268 20.943 101.046 52.89 131.337s72.767 45.435 122.463 45.435c48.749 0 86.966-12.897 114.653-38.691s41.531-61.409 41.531-106.844c0-36.443-11.24-73.359-33.722-110.749s-50.996-71.821-85.546-103.295c-34.55-31.474-70.283-58.569-107.199-81.287h237.826v-66.023h-347.865v59.634zM896 422.762c0-50.642-10.294-94.775-30.882-132.402s-50.641-66.851-90.161-87.676c-39.52-20.825-86.729-31.237-141.631-31.237h-167.543v501.209h167.543c54.901 0 102.111-10.294 141.631-30.882s69.573-49.576 90.161-86.966c20.588-37.39 30.882-81.405 30.882-132.047zM626.937 244.57c60.108 0 106.252 15.618 138.436 46.855s48.275 75.015 48.275 131.337c0 56.321-16.092 100.1-48.275 131.337s-78.328 46.855-138.436 46.855h-80.222v-356.384h80.222z" />
<glyph unicode="&#xe967;" glyph-name="maps_3d" d="M263.111 682.876c32.535 0 60.421-5.693 83.66-17.081s40.784-27.073 52.636-47.059c11.852-19.986 17.778-42.295 17.778-66.928 0-31.14-8.715-57.051-26.144-77.734s-41.946-33.115-73.551-37.298v-3.486c33.929-9.76 60.537-24.285 79.826-43.573s28.932-45.897 28.932-79.826c0-41.365-13.711-74.945-41.133-100.741s-66.695-38.693-117.821-38.693c-52.52 0-94.815 13.362-126.885 40.087s-50.428 66.347-55.076 118.867h78.78c2.789-27.887 12.781-50.080 29.978-66.58s40.436-24.749 69.717-24.749c27.422 0 48.453 7.204 63.094 21.612s21.961 32.999 21.961 55.773c0 27.422-10.574 48.337-31.721 62.745s-51.706 21.612-91.678 21.612h-18.824v65.534h18.824c75.759-0.93 113.638 24.865 113.638 77.386 0 22.774-6.972 40.668-20.915 53.682s-32.999 19.521-57.168 19.521c-24.169 0-44.386-7.32-60.654-21.961s-26.028-35.904-29.281-63.791h-78.083c3.253 48.337 19.521 85.868 48.802 112.593s69.717 40.087 121.307 40.087zM938.667 422.135c0-49.732-10.109-93.072-30.327-130.022s-49.731-65.65-88.54-86.1c-38.809-20.45-85.17-30.675-139.085-30.675h-164.532v492.2h164.532c53.915 0 100.276-10.109 139.085-30.327s68.322-48.685 88.54-85.403c20.218-36.718 30.327-79.942 30.327-129.673zM674.44 247.146c59.027 0 104.343 15.338 135.948 46.013s47.407 73.667 47.407 128.976c0 55.309-15.802 98.301-47.407 128.976s-76.921 46.013-135.948 46.013h-78.78v-349.978h78.78z" />
<glyph unicode="&#xe968;" glyph-name="maps_fire" d="M802.942 61.235c16.909 0 30.617-13.708 30.617-30.617s-13.708-30.617-30.617-30.617h-581.884c-16.909 0-30.617 13.708-30.617 30.617s13.708 30.617 30.617 30.617h581.884zM488.142 853.334c0.612 0 1.184-0.122 1.756-0.408 31.808-15.312 54.47-27.031 68.027-35.157 22.335-13.393 44.426-29.358 66.312-47.855 21.845-18.497 39.934-38.056 54.307-58.635 14.332-20.539 25.888-44.548 34.667-71.987s13.148-56.798 13.148-88.034c0-24.867-3.879-47.855-11.719-68.925s-18.007-38.995-30.624-53.817c-12.576-14.863-26.582-28.868-41.853-42.139-15.353-13.23-30.665-25.602-45.977-37.076-15.271-11.474-29.236-22.948-41.853-34.462-12.617-11.433-22.784-24.459-30.583-38.995-7.84-14.495-11.76-29.889-11.76-46.141 0-19.11 9.351-51.571 28.052-97.426 0.408-1.062 0.367-2.246-0.122-3.307-0.694-1.429-2.164-2.287-3.675-2.287-0.572 0-1.184 0.122-1.756 0.367-32.053 15.312-54.838 27.031-68.435 35.197-22.335 13.393-44.426 29.318-66.271 47.815s-39.975 38.056-54.307 58.635c-14.373 20.579-25.929 44.548-34.707 71.987s-13.148 56.798-13.148 88.075c0 24.867 3.92 47.815 11.719 68.884 7.84 21.069 18.007 38.995 30.624 53.817 12.617 14.863 26.541 28.868 41.853 42.139 15.312 13.23 30.624 25.602 45.977 37.076 15.312 11.474 29.277 22.948 41.853 34.462 12.617 11.474 22.784 24.459 30.624 38.995 7.84 14.495 11.719 29.889 11.719 46.181 0 18.701-9.228 51.163-27.643 97.426-0.408 1.062-0.367 2.246 0.122 3.267 0.694 1.47 2.164 2.327 3.675 2.327zM585.037 695.313c-3.348-10.208-7.636-20.212-12.862-29.93-12.168-22.539-28.133-42.956-47.488-60.595-14.455-13.189-30.583-26.459-47.896-39.444-13.72-10.29-27.684-21.559-41.526-33.523-12.086-10.453-23.193-21.6-33.074-33.238-6.329-7.472-11.841-17.354-16.292-29.358-4.369-11.841-6.615-25.439-6.615-40.465 0-22.703 3.144-43.936 9.269-63.168 6.247-19.518 14.291-36.422 23.887-50.183 7.268-10.412 16.17-20.702 26.541-30.747 3.348 10.249 7.636 20.253 12.862 29.971 12.168 22.539 28.133 42.996 47.529 60.636 14.455 13.148 30.543 26.378 47.855 39.362 13.679 10.29 27.684 21.6 41.567 33.605 12.005 10.371 23.152 21.559 32.993 33.156 6.37 7.472 11.841 17.354 16.292 29.399 4.41 11.801 6.615 25.439 6.615 40.465 0 22.621-3.103 43.895-9.269 63.168-6.247 19.518-14.291 36.382-23.887 50.183-7.268 10.412-16.129 20.702-26.5 30.706z" />
<glyph unicode="&#xe969;" glyph-name="maps_hospital" d="M851.037 783.834v-714.334c0-38.384-31.116-69.5-69.5-69.5v0c-38.384 0-69.5 31.116-69.5 69.5v313.654h-401.284v-314.259c0-38.050-30.845-68.895-68.895-68.895v0c-38.050 0-68.895 30.845-68.895 68.895v715.543c0 38.050 30.845 68.895 68.895 68.895v0c38.050 0 68.895-30.845 68.895-68.895v-288.876h401.284v288.272c0 38.384 31.116 69.5 69.5 69.5v0c38.384 0 69.5-31.116 69.5-69.5z" />
<glyph unicode="&#xe96a;" glyph-name="maps_flag" d="M597.333 682.667l-30.72 61.867c-7.253 14.507-22.187 23.467-38.4 23.467h-272.213c-23.467 0-42.667-19.2-42.667-42.667v-640c0-23.467 19.2-42.667 42.667-42.667s42.667 19.2 42.667 42.667v256h213.333l30.72-61.867c7.253-14.507 22.187-23.467 37.973-23.467h229.973c23.467 0 42.667 19.2 42.667 42.667v341.333c0 23.467-19.2 42.667-42.667 42.667h-213.333zM768 341.334h-170.667l-42.667 85.333h-256v256h213.333l42.667-85.333h213.333v-256z" />
<glyph unicode="&#xe96b;" glyph-name="maps_geofence" d="M511.987 853.334c-135.251 0-244.64-109.389-244.64-244.64 0-145.736 154.473-346.691 218.080-423.228 13.979-16.775 39.492-16.775 53.471 0 63.257 76.538 217.73 277.492 217.73 423.228 0 135.251-109.389 244.64-244.64 244.64zM337.244 608.693c0 96.458 78.285 174.743 174.743 174.743s174.743-78.285 174.743-174.743c0-100.652-100.652-251.281-174.743-345.293-72.693 93.313-174.743 245.689-174.743 345.293zM511.987 521.322c-48.229 0-87.372 39.142-87.372 87.372s39.142 87.372 87.372 87.372c48.229 0 87.372-39.142 87.372-87.372s-39.142-87.372-87.372-87.372zM511.987 72.162c155.286 0 277.25 53.751 277.25 102.007 0 20.257-25.248 45.727-74.842 66.607-18.365 7.732-26.985 28.889-19.253 47.254s28.889 26.985 47.254 19.253c73.394-30.901 119.002-76.91 119.002-133.114 0-104.271-158.602-174.168-349.412-174.168-191.282 0-349.417 70.192-349.386 176.426 1.261 54.838 45.938 99.712 117.364 130.174 18.33 7.817 39.525-0.705 47.342-19.035s-0.705-39.525-19.035-47.342c-48.233-20.57-73.071-45.518-73.52-64.634-0.010-49.528 121.42-103.428 277.234-103.428z" />
<glyph unicode="&#xe96c;" glyph-name="maps_pin" d="M547.304 278.544v-243.24c0-19.498-15.806-35.304-35.304-35.304s-35.304 15.806-35.304 35.304v243.24c-142.707 17.396-253.158 138.903-253.158 286.326 0 159.376 129.087 288.463 288.463 288.463s288.463-129.087 288.463-288.463c0-147.423-110.451-268.931-253.158-286.326zM512 634.956c-38.722 0-70.085-31.363-70.085-70.085s31.363-70.085 70.085-70.085c38.722 0 70.085 31.363 70.085 70.085s-31.363 70.085-70.085 70.085z" />
<glyph unicode="&#xe96d;" glyph-name="maps_track" d="M780.563 696.344c-15.33-15.33-16.607-39.175-2.981-56.208 61.744-77.499 94.106-183.529 65.151-294.668-33.64-129.875-135.411-226.962-264.435-252.937-217.168-43.008-407.51 124.765-407.51 334.695 0 173.735 129.875 316.81 298.074 337.676v-86.016c-133.282-22.568-231.221-147.334-209.93-290.835 16.607-111.139 109.010-200.561 220.575-214.188 154.999-19.162 287.429 101.771 287.429 253.363 0 53.228-16.181 102.197-43.86 143.076-14.478 21.291-45.563 22.568-63.873 4.684l-0.426-0.426c-14.478-14.478-15.755-37.046-4.684-54.079 25.549-39.175 35.769-89.422 20.865-141.372-16.607-58.337-65.576-104.752-125.191-117.952-110.713-24.272-208.652 59.189-208.652 166.070 0 79.203 54.505 145.205 127.746 164.367v-91.126c-25.549-14.904-42.582-41.73-42.582-73.241 0-46.84 38.324-85.164 85.164-85.164s85.164 38.324 85.164 85.164c0 31.511-17.033 58.763-42.582 73.241v322.346c0 16.607-13.626 30.233-30.233 30.233-228.24 8.516-424.969-172.883-437.318-400.271-15.33-278.912 230.369-503.32 511.41-442.853 165.218 35.343 292.965 161.812 330.011 326.604 30.233 134.559-8.516 262.305-83.887 356.412-15.755 20.014-45.563 21.291-63.447 3.407z" />
<glyph unicode="&#xe96e;" glyph-name="maps_traffic" d="M853.333 512h-128v48.64c73.387 19.2 128 85.333 128 164.693h-128v42.667c0 23.467-19.2 42.667-42.667 42.667h-341.333c-23.467 0-42.667-19.2-42.667-42.667v-42.667h-128c0-79.36 54.613-145.493 128-164.693v-48.64h-128c0-79.36 54.613-145.493 128-164.693v-48.64h-128c0-79.36 54.613-145.493 128-164.693v-48.64c0-23.467 19.2-42.667 42.667-42.667h341.333c23.467 0 42.667 19.2 42.667 42.667v48.64c73.387 19.2 128 85.333 128 164.693h-128v48.64c73.387 19.2 128 85.333 128 164.693zM640 128h-256v597.333h256v-597.333zM512 170.667c35.413 0 64 28.587 64 64s-28.587 64-64 64c-35.413 0-64-28.587-64-64s28.587-64 64-64zM512 362.667c35.413 0 64 28.587 64 64s-28.587 64-64 64c-35.413 0-64-28.587-64-64s28.587-64 64-64zM512 554.667c35.413 0 64 28.587 64 64s-28.587 64-64 64c-35.413 0-64-28.587-64-64s28.587-64 64-64z" />
<glyph unicode="&#xe96f;" glyph-name="maps_moving" d="M180.856 181.231c-14.595-18.5-41.424-21.666-59.924-7.071s-21.666 41.424-7.071 59.924l179.507 227.537c43.785 55.5 124.272 64.998 179.772 21.213 10.587-8.352 19.787-18.324 27.261-29.548l44.060-66.168c13.060-19.614 39.548-24.926 59.162-11.866 3.674 2.446 6.946 5.448 9.7 8.898l229.972 288.142c14.699 18.417 41.546 21.432 59.963 6.732s21.432-41.546 6.732-59.963l-229.972-288.142c-8.26-10.35-18.077-19.355-29.099-26.695-58.841-39.181-138.304-23.244-177.485 35.597l-44.060 66.168c-2.491 3.741-5.558 7.065-9.087 9.849-18.5 14.595-45.329 11.429-59.924-7.071l-179.507-227.537z" />
<glyph unicode="&#xe970;" glyph-name="msc_city" d="M640 469.334v220.587c0 22.613-8.96 44.373-25.173 60.16l-72.96 72.96c-16.64 16.64-43.52 16.64-60.16 0l-72.533-72.533c-16.213-16.213-25.173-37.973-25.173-60.587v-49.92h-170.667c-46.933 0-85.333-38.4-85.333-85.333v-426.667c0-46.933 38.4-85.333 85.333-85.333h597.333c46.933 0 85.333 38.4 85.333 85.333v256c0 46.933-38.4 85.333-85.333 85.333h-170.667zM298.667 128h-85.333v85.333h85.333v-85.333zM298.667 298.667h-85.333v85.333h85.333v-85.333zM298.667 469.334h-85.333v85.333h85.333v-85.333zM554.667 128h-85.333v85.333h85.333v-85.333zM554.667 298.667h-85.333v85.333h85.333v-85.333zM554.667 469.334h-85.333v85.333h85.333v-85.333zM554.667 640h-85.333v85.333h85.333v-85.333zM810.667 128h-85.333v85.333h85.333v-85.333zM810.667 298.667h-85.333v85.333h85.333v-85.333z" />
<glyph unicode="&#xe971;" glyph-name="av_pause" d="M341.333 128c46.933 0 85.333 38.4 85.333 85.333v426.667c0 46.933-38.4 85.333-85.333 85.333s-85.333-38.4-85.333-85.333v-426.667c0-46.933 38.4-85.333 85.333-85.333zM597.333 640v-426.667c0-46.933 38.4-85.333 85.333-85.333s85.333 38.4 85.333 85.333v426.667c0 46.933-38.4 85.333-85.333 85.333s-85.333-38.4-85.333-85.333z" />
<glyph unicode="&#xe972;" glyph-name="av_play" d="M161.875 784.212v-715.091c0-54.529 60.051-87.661 106.297-57.98l561.857 357.545c42.795 26.919 42.795 89.041 0 116.651l-561.857 356.855c-46.246 29.68-106.297-3.451-106.297-57.98zM255.841 715.020l453.192-288.614-453.192-288.614v577.227z" />
<glyph unicode="&#xe973;" glyph-name="av_stop" d="M341.333 682.667h341.333c46.933 0 85.333-38.4 85.333-85.333v-341.333c0-46.933-38.4-85.333-85.333-85.333h-341.333c-46.933 0-85.333 38.4-85.333 85.333v341.333c0 46.933 38.4 85.333 85.333 85.333z" />
<glyph unicode="&#xe974;" glyph-name="navigation_radius" d="M512 853.334c-235.093 0-426.667-191.573-426.667-426.667s191.573-426.667 426.667-426.667c235.093 0 426.667 191.573 426.667 426.667s-191.573 426.667-426.667 426.667zM512 85.334c-188.16 0-341.333 153.173-341.333 341.333s153.173 341.333 341.333 341.333c188.16 0 341.333-153.173 341.333-341.333s-153.173-341.333-341.333-341.333zM640 426.667c0-70.827-57.173-128-128-128s-128 57.173-128 128c0 70.827 57.173 128 128 128s128-57.173 128-128z" />
<glyph unicode="&#xe975;" glyph-name="navigation_zone" d="M541.867 469.334c7.069 0 12.8-5.731 12.8-12.8v-59.733c0-7.069-5.731-12.8-12.8-12.8h-59.733c-7.069 0-12.8 5.731-12.8 12.8v59.733c0 7.069 5.731 12.8 12.8 12.8h59.733zM128 725.334v-597.333c0-46.933 38.4-85.333 85.333-85.333h597.333c46.933 0 85.333 38.4 85.333 85.333v597.333c0 46.933-38.4 85.333-85.333 85.333h-597.333c-46.933 0-85.333-38.4-85.333-85.333zM768 128h-512c-23.467 0-42.667 19.2-42.667 42.667v512c0 23.467 19.2 42.667 42.667 42.667h512c23.467 0 42.667-19.2 42.667-42.667v-512c0-23.467-19.2-42.667-42.667-42.667z" />
<glyph unicode="&#xe976;" glyph-name="image_video" d="M640 256v341.333h-426.667v-341.333h426.667zM682.667 682.667c23.467 0 42.667-19.2 42.667-42.667v-149.333l97.83 97.83c8.002 8.002 18.854 12.497 30.17 12.497 23.564 0 42.667-19.103 42.667-42.667v-263.32c0-11.316-4.495-22.168-12.497-30.17-16.662-16.662-43.677-16.662-60.34 0l-97.83 97.83v-149.333c0-23.467-19.2-42.667-42.667-42.667h-512c-23.467 0-42.667 19.2-42.667 42.667v426.667c0 23.467 19.2 42.667 42.667 42.667h512z" />
<glyph unicode="&#xe977;" glyph-name="navigation_faceid" d="M170.667 298.667c-23.467 0-42.667-19.2-42.667-42.667v-128c0-46.933 38.4-85.333 85.333-85.333h128c23.467 0 42.667 19.2 42.667 42.667s-19.2 42.667-42.667 42.667h-85.333c-23.467 0-42.667 19.2-42.667 42.667v85.333c0 23.467-19.2 42.667-42.667 42.667zM213.333 682.667c0 23.467 19.2 42.667 42.667 42.667h85.333c23.467 0 42.667 19.2 42.667 42.667s-19.2 42.667-42.667 42.667h-128c-46.933 0-85.333-38.4-85.333-85.333v-128c0-23.467 19.2-42.667 42.667-42.667s42.667 19.2 42.667 42.667v85.333zM810.667 810.667h-128c-23.467 0-42.667-19.2-42.667-42.667s19.2-42.667 42.667-42.667h85.333c23.467 0 42.667-19.2 42.667-42.667v-85.333c0-23.467 19.2-42.667 42.667-42.667s42.667 19.2 42.667 42.667v128c0 46.933-38.4 85.333-85.333 85.333zM810.667 170.667c0-23.467-19.2-42.667-42.667-42.667h-85.333c-23.467 0-42.667-19.2-42.667-42.667s19.2-42.667 42.667-42.667h128c46.933 0 85.333 38.4 85.333 85.333v128c0 23.467-19.2 42.667-42.667 42.667s-42.667-19.2-42.667-42.667v-85.333zM512 597.334c-94.293 0-170.667-76.373-170.667-170.667s76.373-170.667 170.667-170.667c94.293 0 170.667 76.373 170.667 170.667s-76.373 170.667-170.667 170.667zM512 341.334c-46.933 0-85.333 38.4-85.333 85.333s38.4 85.333 85.333 85.333c46.933 0 85.333-38.4 85.333-85.333s-38.4-85.333-85.333-85.333z" />
</font>
</defs>
</svg>
